ISO-10303-21;
HEADER;
FILE_DESCRIPTION(('Hagane exact polynomial graph B-rep'),'2;1');
FILE_NAME('hagane-graph.step','',('Hagane'),(''),'Hagane','Hagane','');
FILE_SCHEMA(('AUTOMOTIVE_DESIGN'));
ENDSEC;
DATA;
#1=CARTESIAN_POINT('',(22.,7.666666666666666,8.));
#2=VERTEX_POINT('',#1);
#3=CARTESIAN_POINT('',(22.,-5.,20.666666666666664));
#4=VERTEX_POINT('',#3);
#5=CARTESIAN_POINT('',(22.,-17.666666666666664,8.));
#6=VERTEX_POINT('',#5);
#7=CARTESIAN_POINT('',(22.,-5.,-4.666666666666666));
#8=VERTEX_POINT('',#7);
#9=CARTESIAN_POINT('',(36.,3.,8.));
#10=VERTEX_POINT('',#9);
#11=CARTESIAN_POINT('',(36.,-5.,16.));
#12=VERTEX_POINT('',#11);
#13=CARTESIAN_POINT('',(36.,-13.,8.));
#14=VERTEX_POINT('',#13);
#15=CARTESIAN_POINT('',(36.,-5.,0.));
#16=VERTEX_POINT('',#15);
#17=CARTESIAN_POINT('',(22.,-5.,8.));
#18=DIRECTION('',(1.,0.,0.));
#19=DIRECTION('',(0.,1.,0.));
#20=AXIS2_PLACEMENT_3D('',#17,#18,#19);
#21=PLANE('',#20);
#22=CARTESIAN_POINT('',(36.,-5.,8.));
#23=DIRECTION('',(1.,0.,0.));
#24=DIRECTION('',(0.,1.,0.));
#25=AXIS2_PLACEMENT_3D('',#22,#23,#24);
#26=PLANE('',#25);
#27=CARTESIAN_POINT('',(22.,7.666666666666666,8.));
#28=CARTESIAN_POINT('',(36.,3.,8.));
#29=CARTESIAN_POINT('',(22.,7.666666666666666,20.666666666666664));
#30=CARTESIAN_POINT('',(36.,3.,16.));
#31=CARTESIAN_POINT('',(22.,-5.,20.666666666666664));
#32=CARTESIAN_POINT('',(36.,-5.,16.));
#33=(BOUNDED_SURFACE() B_SPLINE_SURFACE(2,1,((#27,#28),(#29,#30),(#31,#32)),.UNSPECIFIED.,.F.,.F.,.F.) B_SPLINE_SURFACE_WITH_KNOTS((3,3),(2,2),(0.,1.),(0.,1.),.UNSPECIFIED.) GEOMETRIC_REPRESENTATION_ITEM() RATIONAL_B_SPLINE_SURFACE(((1.,1.),(0.7071067811865476,0.7071067811865476),(1.,1.))) REPRESENTATION_ITEM('') SURFACE());
#34=CARTESIAN_POINT('',(22.,-5.,20.666666666666664));
#35=CARTESIAN_POINT('',(36.,-5.,16.));
#36=CARTESIAN_POINT('',(22.,-17.666666666666664,20.666666666666664));
#37=CARTESIAN_POINT('',(36.,-13.,16.));
#38=CARTESIAN_POINT('',(22.,-17.666666666666664,8.));
#39=CARTESIAN_POINT('',(36.,-13.,8.));
#40=(BOUNDED_SURFACE() B_SPLINE_SURFACE(2,1,((#34,#35),(#36,#37),(#38,#39)),.UNSPECIFIED.,.F.,.F.,.F.) B_SPLINE_SURFACE_WITH_KNOTS((3,3),(2,2),(0.,1.),(0.,1.),.UNSPECIFIED.) GEOMETRIC_REPRESENTATION_ITEM() RATIONAL_B_SPLINE_SURFACE(((1.,1.),(0.7071067811865476,0.7071067811865476),(1.,1.))) REPRESENTATION_ITEM('') SURFACE());
#41=CARTESIAN_POINT('',(22.,-17.666666666666664,8.));
#42=CARTESIAN_POINT('',(36.,-13.,8.));
#43=CARTESIAN_POINT('',(22.,-17.666666666666664,-4.666666666666666));
#44=CARTESIAN_POINT('',(36.,-13.,0.));
#45=CARTESIAN_POINT('',(22.,-5.,-4.666666666666666));
#46=CARTESIAN_POINT('',(36.,-5.,0.));
#47=(BOUNDED_SURFACE() B_SPLINE_SURFACE(2,1,((#41,#42),(#43,#44),(#45,#46)),.UNSPECIFIED.,.F.,.F.,.F.) B_SPLINE_SURFACE_WITH_KNOTS((3,3),(2,2),(0.,1.),(0.,1.),.UNSPECIFIED.) GEOMETRIC_REPRESENTATION_ITEM() RATIONAL_B_SPLINE_SURFACE(((1.,1.),(0.7071067811865476,0.7071067811865476),(1.,1.))) REPRESENTATION_ITEM('') SURFACE());
#48=CARTESIAN_POINT('',(22.,-5.,-4.666666666666666));
#49=CARTESIAN_POINT('',(36.,-5.,0.));
#50=CARTESIAN_POINT('',(22.,7.666666666666666,-4.666666666666666));
#51=CARTESIAN_POINT('',(36.,3.,0.));
#52=CARTESIAN_POINT('',(22.,7.666666666666666,8.));
#53=CARTESIAN_POINT('',(36.,3.,8.));
#54=(BOUNDED_SURFACE() B_SPLINE_SURFACE(2,1,((#48,#49),(#50,#51),(#52,#53)),.UNSPECIFIED.,.F.,.F.,.F.) B_SPLINE_SURFACE_WITH_KNOTS((3,3),(2,2),(0.,1.),(0.,1.),.UNSPECIFIED.) GEOMETRIC_REPRESENTATION_ITEM() RATIONAL_B_SPLINE_SURFACE(((1.,1.),(0.7071067811865476,0.7071067811865476),(1.,1.))) REPRESENTATION_ITEM('') SURFACE());
#55=(GEOMETRIC_REPRESENTATION_CONTEXT(2) REPRESENTATION_CONTEXT('',''));
#56=CARTESIAN_POINT('',(22.,7.666666666666666,8.));
#57=CARTESIAN_POINT('',(22.,7.666666666666666,20.666666666666664));
#58=CARTESIAN_POINT('',(22.,-5.,20.666666666666664));
#59=(BOUNDED_CURVE() B_SPLINE_CURVE(2,(#56,#57,#58),.UNSPECIFIED.,.F.,.F.) B_SPLINE_CURVE_WITH_KNOTS((3,3),(0.,1.),.UNSPECIFIED.) CURVE() GEOMETRIC_REPRESENTATION_ITEM() RATIONAL_B_SPLINE_CURVE((1.,0.7071067811865476,1.)) REPRESENTATION_ITEM(''));
#60=CARTESIAN_POINT('',(12.666666666666666,0.));
#61=CARTESIAN_POINT('',(12.666666666666666,12.666666666666666));
#62=CARTESIAN_POINT('',(0.,12.666666666666666));
#63=(BOUNDED_CURVE() B_SPLINE_CURVE(2,(#60,#61,#62),.UNSPECIFIED.,.F.,.F.) B_SPLINE_CURVE_WITH_KNOTS((3,3),(0.,1.),.UNSPECIFIED.) CURVE() GEOMETRIC_REPRESENTATION_ITEM() RATIONAL_B_SPLINE_CURVE((1.,0.7071067811865476,1.)) REPRESENTATION_ITEM(''));
#64=DEFINITIONAL_REPRESENTATION('',(#63),#55);
#65=PCURVE('',#21,#64);
#66=CARTESIAN_POINT('',(0.,0.));
#67=DIRECTION('',(1.,0.));
#68=VECTOR('',#67,1.);
#69=LINE('',#66,#68);
#70=DEFINITIONAL_REPRESENTATION('',(#69),#55);
#71=PCURVE('',#33,#70);
#72=SURFACE_CURVE('',#59,(#65,#71),.CURVE_3D.);
#73=EDGE_CURVE('',#2,#4,#72,.T.);
#74=CARTESIAN_POINT('',(22.,-5.,20.666666666666664));
#75=CARTESIAN_POINT('',(22.,-17.666666666666664,20.666666666666664));
#76=CARTESIAN_POINT('',(22.,-17.666666666666664,8.));
#77=(BOUNDED_CURVE() B_SPLINE_CURVE(2,(#74,#75,#76),.UNSPECIFIED.,.F.,.F.) B_SPLINE_CURVE_WITH_KNOTS((3,3),(0.,1.),.UNSPECIFIED.) CURVE() GEOMETRIC_REPRESENTATION_ITEM() RATIONAL_B_SPLINE_CURVE((1.,0.7071067811865476,1.)) REPRESENTATION_ITEM(''));
#78=CARTESIAN_POINT('',(0.,12.666666666666666));
#79=CARTESIAN_POINT('',(-12.666666666666666,12.666666666666666));
#80=CARTESIAN_POINT('',(-12.666666666666666,0.));
#81=(BOUNDED_CURVE() B_SPLINE_CURVE(2,(#78,#79,#80),.UNSPECIFIED.,.F.,.F.) B_SPLINE_CURVE_WITH_KNOTS((3,3),(0.,1.),.UNSPECIFIED.) CURVE() GEOMETRIC_REPRESENTATION_ITEM() RATIONAL_B_SPLINE_CURVE((1.,0.7071067811865476,1.)) REPRESENTATION_ITEM(''));
#82=DEFINITIONAL_REPRESENTATION('',(#81),#55);
#83=PCURVE('',#21,#82);
#84=CARTESIAN_POINT('',(0.,0.));
#85=DIRECTION('',(1.,0.));
#86=VECTOR('',#85,1.);
#87=LINE('',#84,#86);
#88=DEFINITIONAL_REPRESENTATION('',(#87),#55);
#89=PCURVE('',#40,#88);
#90=SURFACE_CURVE('',#77,(#83,#89),.CURVE_3D.);
#91=EDGE_CURVE('',#4,#6,#90,.T.);
#92=CARTESIAN_POINT('',(22.,-17.666666666666664,8.));
#93=CARTESIAN_POINT('',(22.,-17.666666666666664,-4.666666666666666));
#94=CARTESIAN_POINT('',(22.,-5.,-4.666666666666666));
#95=(BOUNDED_CURVE() B_SPLINE_CURVE(2,(#92,#93,#94),.UNSPECIFIED.,.F.,.F.) B_SPLINE_CURVE_WITH_KNOTS((3,3),(0.,1.),.UNSPECIFIED.) CURVE() GEOMETRIC_REPRESENTATION_ITEM() RATIONAL_B_SPLINE_CURVE((1.,0.7071067811865476,1.)) REPRESENTATION_ITEM(''));
#96=CARTESIAN_POINT('',(-12.666666666666666,0.));
#97=CARTESIAN_POINT('',(-12.666666666666666,-12.666666666666666));
#98=CARTESIAN_POINT('',(0.,-12.666666666666666));
#99=(BOUNDED_CURVE() B_SPLINE_CURVE(2,(#96,#97,#98),.UNSPECIFIED.,.F.,.F.) B_SPLINE_CURVE_WITH_KNOTS((3,3),(0.,1.),.UNSPECIFIED.) CURVE() GEOMETRIC_REPRESENTATION_ITEM() RATIONAL_B_SPLINE_CURVE((1.,0.7071067811865476,1.)) REPRESENTATION_ITEM(''));
#100=DEFINITIONAL_REPRESENTATION('',(#99),#55);
#101=PCURVE('',#21,#100);
#102=CARTESIAN_POINT('',(0.,0.));
#103=DIRECTION('',(1.,0.));
#104=VECTOR('',#103,1.);
#105=LINE('',#102,#104);
#106=DEFINITIONAL_REPRESENTATION('',(#105),#55);
#107=PCURVE('',#47,#106);
#108=SURFACE_CURVE('',#95,(#101,#107),.CURVE_3D.);
#109=EDGE_CURVE('',#6,#8,#108,.T.);
#110=CARTESIAN_POINT('',(22.,-5.,-4.666666666666666));
#111=CARTESIAN_POINT('',(22.,7.666666666666666,-4.666666666666666));
#112=CARTESIAN_POINT('',(22.,7.666666666666666,8.));
#113=(BOUNDED_CURVE() B_SPLINE_CURVE(2,(#110,#111,#112),.UNSPECIFIED.,.F.,.F.) B_SPLINE_CURVE_WITH_KNOTS((3,3),(0.,1.),.UNSPECIFIED.) CURVE() GEOMETRIC_REPRESENTATION_ITEM() RATIONAL_B_SPLINE_CURVE((1.,0.7071067811865476,1.)) REPRESENTATION_ITEM(''));
#114=CARTESIAN_POINT('',(0.,-12.666666666666666));
#115=CARTESIAN_POINT('',(12.666666666666666,-12.666666666666666));
#116=CARTESIAN_POINT('',(12.666666666666666,0.));
#117=(BOUNDED_CURVE() B_SPLINE_CURVE(2,(#114,#115,#116),.UNSPECIFIED.,.F.,.F.) B_SPLINE_CURVE_WITH_KNOTS((3,3),(0.,1.),.UNSPECIFIED.) CURVE() GEOMETRIC_REPRESENTATION_ITEM() RATIONAL_B_SPLINE_CURVE((1.,0.7071067811865476,1.)) REPRESENTATION_ITEM(''));
#118=DEFINITIONAL_REPRESENTATION('',(#117),#55);
#119=PCURVE('',#21,#118);
#120=CARTESIAN_POINT('',(0.,0.));
#121=DIRECTION('',(1.,0.));
#122=VECTOR('',#121,1.);
#123=LINE('',#120,#122);
#124=DEFINITIONAL_REPRESENTATION('',(#123),#55);
#125=PCURVE('',#54,#124);
#126=SURFACE_CURVE('',#113,(#119,#125),.CURVE_3D.);
#127=EDGE_CURVE('',#8,#2,#126,.T.);
#128=CARTESIAN_POINT('',(36.,3.,8.));
#129=CARTESIAN_POINT('',(36.,3.,16.));
#130=CARTESIAN_POINT('',(36.,-5.,16.));
#131=(BOUNDED_CURVE() B_SPLINE_CURVE(2,(#128,#129,#130),.UNSPECIFIED.,.F.,.F.) B_SPLINE_CURVE_WITH_KNOTS((3,3),(0.,1.),.UNSPECIFIED.) CURVE() GEOMETRIC_REPRESENTATION_ITEM() RATIONAL_B_SPLINE_CURVE((1.,0.7071067811865476,1.)) REPRESENTATION_ITEM(''));
#132=CARTESIAN_POINT('',(8.,0.));
#133=CARTESIAN_POINT('',(8.,8.));
#134=CARTESIAN_POINT('',(0.,8.));
#135=(BOUNDED_CURVE() B_SPLINE_CURVE(2,(#132,#133,#134),.UNSPECIFIED.,.F.,.F.) B_SPLINE_CURVE_WITH_KNOTS((3,3),(0.,1.),.UNSPECIFIED.) CURVE() GEOMETRIC_REPRESENTATION_ITEM() RATIONAL_B_SPLINE_CURVE((1.,0.7071067811865476,1.)) REPRESENTATION_ITEM(''));
#136=DEFINITIONAL_REPRESENTATION('',(#135),#55);
#137=PCURVE('',#26,#136);
#138=CARTESIAN_POINT('',(0.,1.));
#139=DIRECTION('',(1.,0.));
#140=VECTOR('',#139,1.);
#141=LINE('',#138,#140);
#142=DEFINITIONAL_REPRESENTATION('',(#141),#55);
#143=PCURVE('',#33,#142);
#144=SURFACE_CURVE('',#131,(#137,#143),.CURVE_3D.);
#145=EDGE_CURVE('',#10,#12,#144,.T.);
#146=CARTESIAN_POINT('',(36.,-5.,16.));
#147=CARTESIAN_POINT('',(36.,-13.,16.));
#148=CARTESIAN_POINT('',(36.,-13.,8.));
#149=(BOUNDED_CURVE() B_SPLINE_CURVE(2,(#146,#147,#148),.UNSPECIFIED.,.F.,.F.) B_SPLINE_CURVE_WITH_KNOTS((3,3),(0.,1.),.UNSPECIFIED.) CURVE() GEOMETRIC_REPRESENTATION_ITEM() RATIONAL_B_SPLINE_CURVE((1.,0.7071067811865476,1.)) REPRESENTATION_ITEM(''));
#150=CARTESIAN_POINT('',(0.,8.));
#151=CARTESIAN_POINT('',(-8.,8.));
#152=CARTESIAN_POINT('',(-8.,0.));
#153=(BOUNDED_CURVE() B_SPLINE_CURVE(2,(#150,#151,#152),.UNSPECIFIED.,.F.,.F.) B_SPLINE_CURVE_WITH_KNOTS((3,3),(0.,1.),.UNSPECIFIED.) CURVE() GEOMETRIC_REPRESENTATION_ITEM() RATIONAL_B_SPLINE_CURVE((1.,0.7071067811865476,1.)) REPRESENTATION_ITEM(''));
#154=DEFINITIONAL_REPRESENTATION('',(#153),#55);
#155=PCURVE('',#26,#154);
#156=CARTESIAN_POINT('',(0.,1.));
#157=DIRECTION('',(1.,0.));
#158=VECTOR('',#157,1.);
#159=LINE('',#156,#158);
#160=DEFINITIONAL_REPRESENTATION('',(#159),#55);
#161=PCURVE('',#40,#160);
#162=SURFACE_CURVE('',#149,(#155,#161),.CURVE_3D.);
#163=EDGE_CURVE('',#12,#14,#162,.T.);
#164=CARTESIAN_POINT('',(36.,-13.,8.));
#165=CARTESIAN_POINT('',(36.,-13.,0.));
#166=CARTESIAN_POINT('',(36.,-5.,0.));
#167=(BOUNDED_CURVE() B_SPLINE_CURVE(2,(#164,#165,#166),.UNSPECIFIED.,.F.,.F.) B_SPLINE_CURVE_WITH_KNOTS((3,3),(0.,1.),.UNSPECIFIED.) CURVE() GEOMETRIC_REPRESENTATION_ITEM() RATIONAL_B_SPLINE_CURVE((1.,0.7071067811865476,1.)) REPRESENTATION_ITEM(''));
#168=CARTESIAN_POINT('',(-8.,0.));
#169=CARTESIAN_POINT('',(-8.,-8.));
#170=CARTESIAN_POINT('',(0.,-8.));
#171=(BOUNDED_CURVE() B_SPLINE_CURVE(2,(#168,#169,#170),.UNSPECIFIED.,.F.,.F.) B_SPLINE_CURVE_WITH_KNOTS((3,3),(0.,1.),.UNSPECIFIED.) CURVE() GEOMETRIC_REPRESENTATION_ITEM() RATIONAL_B_SPLINE_CURVE((1.,0.7071067811865476,1.)) REPRESENTATION_ITEM(''));
#172=DEFINITIONAL_REPRESENTATION('',(#171),#55);
#173=PCURVE('',#26,#172);
#174=CARTESIAN_POINT('',(0.,1.));
#175=DIRECTION('',(1.,0.));
#176=VECTOR('',#175,1.);
#177=LINE('',#174,#176);
#178=DEFINITIONAL_REPRESENTATION('',(#177),#55);
#179=PCURVE('',#47,#178);
#180=SURFACE_CURVE('',#167,(#173,#179),.CURVE_3D.);
#181=EDGE_CURVE('',#14,#16,#180,.T.);
#182=CARTESIAN_POINT('',(36.,-5.,0.));
#183=CARTESIAN_POINT('',(36.,3.,0.));
#184=CARTESIAN_POINT('',(36.,3.,8.));
#185=(BOUNDED_CURVE() B_SPLINE_CURVE(2,(#182,#183,#184),.UNSPECIFIED.,.F.,.F.) B_SPLINE_CURVE_WITH_KNOTS((3,3),(0.,1.),.UNSPECIFIED.) CURVE() GEOMETRIC_REPRESENTATION_ITEM() RATIONAL_B_SPLINE_CURVE((1.,0.7071067811865476,1.)) REPRESENTATION_ITEM(''));
#186=CARTESIAN_POINT('',(0.,-8.));
#187=CARTESIAN_POINT('',(8.,-8.));
#188=CARTESIAN_POINT('',(8.,0.));
#189=(BOUNDED_CURVE() B_SPLINE_CURVE(2,(#186,#187,#188),.UNSPECIFIED.,.F.,.F.) B_SPLINE_CURVE_WITH_KNOTS((3,3),(0.,1.),.UNSPECIFIED.) CURVE() GEOMETRIC_REPRESENTATION_ITEM() RATIONAL_B_SPLINE_CURVE((1.,0.7071067811865476,1.)) REPRESENTATION_ITEM(''));
#190=DEFINITIONAL_REPRESENTATION('',(#189),#55);
#191=PCURVE('',#26,#190);
#192=CARTESIAN_POINT('',(0.,1.));
#193=DIRECTION('',(1.,0.));
#194=VECTOR('',#193,1.);
#195=LINE('',#192,#194);
#196=DEFINITIONAL_REPRESENTATION('',(#195),#55);
#197=PCURVE('',#54,#196);
#198=SURFACE_CURVE('',#185,(#191,#197),.CURVE_3D.);
#199=EDGE_CURVE('',#16,#10,#198,.T.);
#200=CARTESIAN_POINT('',(22.,7.666666666666666,8.));
#201=DIRECTION('',(0.9486832980505137,-0.31622776601683783,0.));
#202=VECTOR('',#201,14.757295747452439);
#203=LINE('',#200,#202);
#204=CARTESIAN_POINT('',(0.,0.));
#205=DIRECTION('',(0.,1.));
#206=VECTOR('',#205,1.);
#207=LINE('',#204,#206);
#208=DEFINITIONAL_REPRESENTATION('',(#207),#55);
#209=PCURVE('',#33,#208);
#210=CARTESIAN_POINT('',(1.,0.));
#211=DIRECTION('',(0.,1.));
#212=VECTOR('',#211,1.);
#213=LINE('',#210,#212);
#214=DEFINITIONAL_REPRESENTATION('',(#213),#55);
#215=PCURVE('',#54,#214);
#216=SURFACE_CURVE('',#203,(#209,#215),.CURVE_3D.);
#217=EDGE_CURVE('',#2,#10,#216,.T.);
#218=CARTESIAN_POINT('',(22.,-5.,20.666666666666664));
#219=DIRECTION('',(0.9486832980505139,0.,-0.31622776601683783));
#220=VECTOR('',#219,14.757295747452435);
#221=LINE('',#218,#220);
#222=CARTESIAN_POINT('',(1.,0.));
#223=DIRECTION('',(0.,1.));
#224=VECTOR('',#223,1.);
#225=LINE('',#222,#224);
#226=DEFINITIONAL_REPRESENTATION('',(#225),#55);
#227=PCURVE('',#33,#226);
#228=CARTESIAN_POINT('',(0.,0.));
#229=DIRECTION('',(0.,1.));
#230=VECTOR('',#229,1.);
#231=LINE('',#228,#230);
#232=DEFINITIONAL_REPRESENTATION('',(#231),#55);
#233=PCURVE('',#40,#232);
#234=SURFACE_CURVE('',#221,(#227,#233),.CURVE_3D.);
#235=EDGE_CURVE('',#4,#12,#234,.T.);
#236=CARTESIAN_POINT('',(22.,-17.666666666666664,8.));
#237=DIRECTION('',(0.9486832980505139,0.31622776601683783,0.));
#238=VECTOR('',#237,14.757295747452435);
#239=LINE('',#236,#238);
#240=CARTESIAN_POINT('',(1.,0.));
#241=DIRECTION('',(0.,1.));
#242=VECTOR('',#241,1.);
#243=LINE('',#240,#242);
#244=DEFINITIONAL_REPRESENTATION('',(#243),#55);
#245=PCURVE('',#40,#244);
#246=CARTESIAN_POINT('',(0.,0.));
#247=DIRECTION('',(0.,1.));
#248=VECTOR('',#247,1.);
#249=LINE('',#246,#248);
#250=DEFINITIONAL_REPRESENTATION('',(#249),#55);
#251=PCURVE('',#47,#250);
#252=SURFACE_CURVE('',#239,(#245,#251),.CURVE_3D.);
#253=EDGE_CURVE('',#6,#14,#252,.T.);
#254=CARTESIAN_POINT('',(22.,-5.,-4.666666666666666));
#255=DIRECTION('',(0.9486832980505137,0.,0.31622776601683783));
#256=VECTOR('',#255,14.757295747452439);
#257=LINE('',#254,#256);
#258=CARTESIAN_POINT('',(1.,0.));
#259=DIRECTION('',(0.,1.));
#260=VECTOR('',#259,1.);
#261=LINE('',#258,#260);
#262=DEFINITIONAL_REPRESENTATION('',(#261),#55);
#263=PCURVE('',#47,#262);
#264=CARTESIAN_POINT('',(0.,0.));
#265=DIRECTION('',(0.,1.));
#266=VECTOR('',#265,1.);
#267=LINE('',#264,#266);
#268=DEFINITIONAL_REPRESENTATION('',(#267),#55);
#269=PCURVE('',#54,#268);
#270=SURFACE_CURVE('',#257,(#263,#269),.CURVE_3D.);
#271=EDGE_CURVE('',#8,#16,#270,.T.);
#272=ORIENTED_EDGE('',*,*,#73,.T.);
#273=ORIENTED_EDGE('',*,*,#91,.T.);
#274=ORIENTED_EDGE('',*,*,#109,.T.);
#275=ORIENTED_EDGE('',*,*,#127,.T.);
#276=EDGE_LOOP('',(#272,#273,#274,#275));
#277=FACE_OUTER_BOUND('',#276,.T.);
#278=ADVANCED_FACE('',(#277),#21,.F.);
#279=ORIENTED_EDGE('',*,*,#145,.T.);
#280=ORIENTED_EDGE('',*,*,#163,.T.);
#281=ORIENTED_EDGE('',*,*,#181,.T.);
#282=ORIENTED_EDGE('',*,*,#199,.T.);
#283=EDGE_LOOP('',(#279,#280,#281,#282));
#284=FACE_OUTER_BOUND('',#283,.T.);
#285=ADVANCED_FACE('',(#284),#26,.T.);
#286=ORIENTED_EDGE('',*,*,#73,.T.);
#287=ORIENTED_EDGE('',*,*,#235,.T.);
#288=ORIENTED_EDGE('',*,*,#145,.F.);
#289=ORIENTED_EDGE('',*,*,#217,.F.);
#290=EDGE_LOOP('',(#286,#287,#288,#289));
#291=FACE_OUTER_BOUND('',#290,.T.);
#292=ADVANCED_FACE('',(#291),#33,.T.);
#293=ORIENTED_EDGE('',*,*,#91,.T.);
#294=ORIENTED_EDGE('',*,*,#253,.T.);
#295=ORIENTED_EDGE('',*,*,#163,.F.);
#296=ORIENTED_EDGE('',*,*,#235,.F.);
#297=EDGE_LOOP('',(#293,#294,#295,#296));
#298=FACE_OUTER_BOUND('',#297,.T.);
#299=ADVANCED_FACE('',(#298),#40,.T.);
#300=ORIENTED_EDGE('',*,*,#109,.T.);
#301=ORIENTED_EDGE('',*,*,#271,.T.);
#302=ORIENTED_EDGE('',*,*,#181,.F.);
#303=ORIENTED_EDGE('',*,*,#253,.F.);
#304=EDGE_LOOP('',(#300,#301,#302,#303));
#305=FACE_OUTER_BOUND('',#304,.T.);
#306=ADVANCED_FACE('',(#305),#47,.T.);
#307=ORIENTED_EDGE('',*,*,#127,.T.);
#308=ORIENTED_EDGE('',*,*,#217,.T.);
#309=ORIENTED_EDGE('',*,*,#199,.F.);
#310=ORIENTED_EDGE('',*,*,#271,.F.);
#311=EDGE_LOOP('',(#307,#308,#309,#310));
#312=FACE_OUTER_BOUND('',#311,.T.);
#313=ADVANCED_FACE('',(#312),#54,.T.);
#314=CLOSED_SHELL('',(#278,#285,#292,#299,#306,#313));
#315=MANIFOLD_SOLID_BREP('Hagane graph part',#314);
#316=(LENGTH_UNIT() NAMED_UNIT(*) SI_UNIT(.MILLI.,.METRE.));
#317=(NAMED_UNIT(*) PLANE_ANGLE_UNIT() SI_UNIT($,.RADIAN.));
#318=(NAMED_UNIT(*) SI_UNIT($,.STERADIAN.) SOLID_ANGLE_UNIT());
#319=UNCERTAINTY_MEASURE_WITH_UNIT(LENGTH_MEASURE(0.00000001),#316,'distance_accuracy_value','');
#320=(GEOMETRIC_REPRESENTATION_CONTEXT(3) GLOBAL_UNCERTAINTY_ASSIGNED_CONTEXT((#319)) GLOBAL_UNIT_ASSIGNED_CONTEXT((#316,#317,#318)) REPRESENTATION_CONTEXT('',''));
#321=ADVANCED_BREP_SHAPE_REPRESENTATION('',(#315),#320);
#322=APPLICATION_CONTEXT('automotive_design');
#323=APPLICATION_PROTOCOL_DEFINITION('international standard','automotive_design',2000,#322);
#324=PRODUCT_CONTEXT('',#322,'mechanical');
#325=PRODUCT('hagane','Hagane graph part','',(#324));
#326=PRODUCT_DEFINITION_FORMATION('','',#325);
#327=PRODUCT_DEFINITION_CONTEXT('part definition',#322,'design');
#328=PRODUCT_DEFINITION('design','',#326,#327);
#329=PRODUCT_DEFINITION_SHAPE('','',#328);
#330=SHAPE_DEFINITION_REPRESENTATION(#329,#321);
ENDSEC;
END-ISO-10303-21;
