ISO-10303-21;
HEADER;
FILE_DESCRIPTION(('Hagane exact B-rep'),'2;1');
FILE_NAME('hagane.step','',('Hagane'),(''),'Hagane','Hagane','');
FILE_SCHEMA(('AUTOMOTIVE_DESIGN'));
ENDSEC;
DATA;
#1=CARTESIAN_POINT('',(-40.,-20.,-12.));
#2=CARTESIAN_POINT('',(-30.,-30.,-12.));
#3=CARTESIAN_POINT('',(30.,-30.,-12.));
#4=CARTESIAN_POINT('',(40.,-20.,-12.));
#5=CARTESIAN_POINT('',(40.,20.,-12.));
#6=CARTESIAN_POINT('',(30.,30.,-12.));
#7=CARTESIAN_POINT('',(-30.,30.,-12.));
#8=CARTESIAN_POINT('',(-40.,20.,-12.));
#9=CARTESIAN_POINT('',(-34.,8.,-12.));
#10=CARTESIAN_POINT('',(-22.,8.,-12.));
#11=CARTESIAN_POINT('',(-22.,-8.,-12.));
#12=CARTESIAN_POINT('',(-34.,-8.,-12.));
#13=CARTESIAN_POINT('',(-22.,-32.,12.));
#14=CARTESIAN_POINT('',(-12.,-42.,12.));
#15=CARTESIAN_POINT('',(48.,-42.,12.));
#16=CARTESIAN_POINT('',(58.,-32.,12.));
#17=CARTESIAN_POINT('',(58.,8.,12.));
#18=CARTESIAN_POINT('',(48.,18.,12.));
#19=CARTESIAN_POINT('',(-12.,18.,12.));
#20=CARTESIAN_POINT('',(-22.,8.,12.));
#21=CARTESIAN_POINT('',(-16.,-4.,12.));
#22=CARTESIAN_POINT('',(-4.,-4.,12.));
#23=CARTESIAN_POINT('',(-4.,-20.,12.));
#24=CARTESIAN_POINT('',(-16.,-20.,12.));
#25=CARTESIAN_POINT('',(28.,0.,-12.));
#26=CARTESIAN_POINT('',(28.,0.,12.));
#27=VERTEX_POINT('',#1);
#28=VERTEX_POINT('',#2);
#29=VERTEX_POINT('',#3);
#30=VERTEX_POINT('',#4);
#31=VERTEX_POINT('',#5);
#32=VERTEX_POINT('',#6);
#33=VERTEX_POINT('',#7);
#34=VERTEX_POINT('',#8);
#35=VERTEX_POINT('',#9);
#36=VERTEX_POINT('',#10);
#37=VERTEX_POINT('',#11);
#38=VERTEX_POINT('',#12);
#39=VERTEX_POINT('',#13);
#40=VERTEX_POINT('',#14);
#41=VERTEX_POINT('',#15);
#42=VERTEX_POINT('',#16);
#43=VERTEX_POINT('',#17);
#44=VERTEX_POINT('',#18);
#45=VERTEX_POINT('',#19);
#46=VERTEX_POINT('',#20);
#47=VERTEX_POINT('',#21);
#48=VERTEX_POINT('',#22);
#49=VERTEX_POINT('',#23);
#50=VERTEX_POINT('',#24);
#51=VERTEX_POINT('',#25);
#52=VERTEX_POINT('',#26);
#53=CARTESIAN_POINT('',(0.,0.,-12.));
#54=DIRECTION('',(0.,0.,1.));
#55=DIRECTION('',(1.,0.,0.));
#56=AXIS2_PLACEMENT_3D('',#53,#54,#55);
#57=PLANE('',#56);
#58=CARTESIAN_POINT('',(18.,-12.,12.));
#59=DIRECTION('',(0.,0.,1.));
#60=DIRECTION('',(1.,0.,0.));
#61=AXIS2_PLACEMENT_3D('',#58,#59,#60);
#62=PLANE('',#61);
#63=CARTESIAN_POINT('',(-40.,-20.,-12.));
#64=DIRECTION('',(-0.6963106238227912,-0.6963106238227912,0.1740776559556978));
#65=DIRECTION('',(0.7071067811865475,-0.7071067811865475,0.));
#66=AXIS2_PLACEMENT_3D('',#63,#64,#65);
#67=PLANE('',#66);
#68=CARTESIAN_POINT('',(-30.,-30.,-12.));
#69=DIRECTION('',(0.,-0.8944271909999159,-0.4472135954999579));
#70=DIRECTION('',(1.,0.,0.));
#71=AXIS2_PLACEMENT_3D('',#68,#69,#70);
#72=PLANE('',#71);
#73=CARTESIAN_POINT('',(30.,-30.,-12.));
#74=DIRECTION('',(0.5298129428260175,-0.5298129428260175,-0.6622661785325218));
#75=DIRECTION('',(0.7071067811865475,0.7071067811865475,0.));
#76=AXIS2_PLACEMENT_3D('',#73,#74,#75);
#77=PLANE('',#76);
#78=CARTESIAN_POINT('',(40.,-20.,-12.));
#79=DIRECTION('',(0.8,0.,-0.6));
#80=DIRECTION('',(0.,1.,0.));
#81=AXIS2_PLACEMENT_3D('',#78,#79,#80);
#82=PLANE('',#81);
#83=CARTESIAN_POINT('',(40.,20.,-12.));
#84=DIRECTION('',(0.6963106238227912,0.6963106238227912,-0.1740776559556978));
#85=DIRECTION('',(-0.7071067811865475,0.7071067811865475,0.));
#86=AXIS2_PLACEMENT_3D('',#83,#84,#85);
#87=PLANE('',#86);
#88=CARTESIAN_POINT('',(30.,30.,-12.));
#89=DIRECTION('',(0.,0.8944271909999159,0.4472135954999579));
#90=DIRECTION('',(-1.,0.,0.));
#91=AXIS2_PLACEMENT_3D('',#88,#89,#90);
#92=PLANE('',#91);
#93=CARTESIAN_POINT('',(-30.,30.,-12.));
#94=DIRECTION('',(-0.5298129428260175,0.5298129428260175,0.6622661785325218));
#95=DIRECTION('',(-0.7071067811865475,-0.7071067811865475,0.));
#96=AXIS2_PLACEMENT_3D('',#93,#94,#95);
#97=PLANE('',#96);
#98=CARTESIAN_POINT('',(-40.,20.,-12.));
#99=DIRECTION('',(-0.8,0.,0.6));
#100=DIRECTION('',(0.,-1.,0.));
#101=AXIS2_PLACEMENT_3D('',#98,#99,#100);
#102=PLANE('',#101);
#103=CARTESIAN_POINT('',(-34.,8.,-12.));
#104=DIRECTION('',(0.,-0.8944271909999159,-0.4472135954999579));
#105=DIRECTION('',(1.,0.,0.));
#106=AXIS2_PLACEMENT_3D('',#103,#104,#105);
#107=PLANE('',#106);
#108=CARTESIAN_POINT('',(-22.,8.,-12.));
#109=DIRECTION('',(-0.8,0.,0.6));
#110=DIRECTION('',(0.,-1.,0.));
#111=AXIS2_PLACEMENT_3D('',#108,#109,#110);
#112=PLANE('',#111);
#113=CARTESIAN_POINT('',(-22.,-8.,-12.));
#114=DIRECTION('',(0.,0.8944271909999159,0.4472135954999579));
#115=DIRECTION('',(-1.,0.,0.));
#116=AXIS2_PLACEMENT_3D('',#113,#114,#115);
#117=PLANE('',#116);
#118=CARTESIAN_POINT('',(-34.,-8.,-12.));
#119=DIRECTION('',(0.8,0.,-0.6));
#120=DIRECTION('',(0.,1.,0.));
#121=AXIS2_PLACEMENT_3D('',#118,#119,#120);
#122=PLANE('',#121);
#123=CARTESIAN_POINT('',(24.,0.,-12.));
#124=DIRECTION('',(0.,0.,1.));
#125=DIRECTION('',(1.,0.,0.));
#126=AXIS2_PLACEMENT_3D('',#123,#124,#125);
#127=CYLINDRICAL_SURFACE('',#126,4.);
#128=(GEOMETRIC_REPRESENTATION_CONTEXT(2) REPRESENTATION_CONTEXT('',''));
#129=CARTESIAN_POINT('',(-40.,-20.,-12.));
#130=DIRECTION('',(0.7071067811865475,-0.7071067811865475,0.));
#131=VECTOR('',#130,14.142135623730951);
#132=LINE('',#129,#131);
#133=EDGE_CURVE('',#27,#28,#132,.T.);
#134=CARTESIAN_POINT('',(-22.,-32.,12.));
#135=DIRECTION('',(0.7071067811865475,-0.7071067811865475,0.));
#136=VECTOR('',#135,14.142135623730951);
#137=LINE('',#134,#136);
#138=EDGE_CURVE('',#39,#40,#137,.T.);
#139=CARTESIAN_POINT('',(-40.,-20.,-12.));
#140=DIRECTION('',(0.5570860145311555,-0.37139067635410367,0.7427813527082073));
#141=VECTOR('',#140,32.31098884280703);
#142=LINE('',#139,#141);
#143=EDGE_CURVE('',#27,#39,#142,.T.);
#144=CARTESIAN_POINT('',(-30.,-30.,-12.));
#145=DIRECTION('',(1.,0.,0.));
#146=VECTOR('',#145,60.);
#147=LINE('',#144,#146);
#148=EDGE_CURVE('',#28,#29,#147,.T.);
#149=CARTESIAN_POINT('',(-12.,-42.,12.));
#150=DIRECTION('',(1.,0.,0.));
#151=VECTOR('',#150,60.);
#152=LINE('',#149,#151);
#153=EDGE_CURVE('',#40,#41,#152,.T.);
#154=CARTESIAN_POINT('',(-30.,-30.,-12.));
#155=DIRECTION('',(0.5570860145311555,-0.37139067635410367,0.7427813527082073));
#156=VECTOR('',#155,32.31098884280703);
#157=LINE('',#154,#156);
#158=EDGE_CURVE('',#28,#40,#157,.T.);
#159=CARTESIAN_POINT('',(30.,-30.,-12.));
#160=DIRECTION('',(0.7071067811865475,0.7071067811865475,0.));
#161=VECTOR('',#160,14.142135623730951);
#162=LINE('',#159,#161);
#163=EDGE_CURVE('',#29,#30,#162,.T.);
#164=CARTESIAN_POINT('',(48.,-42.,12.));
#165=DIRECTION('',(0.7071067811865475,0.7071067811865475,0.));
#166=VECTOR('',#165,14.142135623730951);
#167=LINE('',#164,#166);
#168=EDGE_CURVE('',#41,#42,#167,.T.);
#169=CARTESIAN_POINT('',(30.,-30.,-12.));
#170=DIRECTION('',(0.5570860145311555,-0.37139067635410367,0.7427813527082073));
#171=VECTOR('',#170,32.31098884280703);
#172=LINE('',#169,#171);
#173=EDGE_CURVE('',#29,#41,#172,.T.);
#174=CARTESIAN_POINT('',(40.,-20.,-12.));
#175=DIRECTION('',(0.,1.,0.));
#176=VECTOR('',#175,40.);
#177=LINE('',#174,#176);
#178=EDGE_CURVE('',#30,#31,#177,.T.);
#179=CARTESIAN_POINT('',(58.,-32.,12.));
#180=DIRECTION('',(0.,1.,0.));
#181=VECTOR('',#180,40.);
#182=LINE('',#179,#181);
#183=EDGE_CURVE('',#42,#43,#182,.T.);
#184=CARTESIAN_POINT('',(40.,-20.,-12.));
#185=DIRECTION('',(0.5570860145311555,-0.37139067635410367,0.7427813527082073));
#186=VECTOR('',#185,32.31098884280703);
#187=LINE('',#184,#186);
#188=EDGE_CURVE('',#30,#42,#187,.T.);
#189=CARTESIAN_POINT('',(40.,20.,-12.));
#190=DIRECTION('',(-0.7071067811865475,0.7071067811865475,0.));
#191=VECTOR('',#190,14.142135623730951);
#192=LINE('',#189,#191);
#193=EDGE_CURVE('',#31,#32,#192,.T.);
#194=CARTESIAN_POINT('',(58.,8.,12.));
#195=DIRECTION('',(-0.7071067811865475,0.7071067811865475,0.));
#196=VECTOR('',#195,14.142135623730951);
#197=LINE('',#194,#196);
#198=EDGE_CURVE('',#43,#44,#197,.T.);
#199=CARTESIAN_POINT('',(40.,20.,-12.));
#200=DIRECTION('',(0.5570860145311555,-0.37139067635410367,0.7427813527082073));
#201=VECTOR('',#200,32.31098884280703);
#202=LINE('',#199,#201);
#203=EDGE_CURVE('',#31,#43,#202,.T.);
#204=CARTESIAN_POINT('',(30.,30.,-12.));
#205=DIRECTION('',(-1.,0.,0.));
#206=VECTOR('',#205,60.);
#207=LINE('',#204,#206);
#208=EDGE_CURVE('',#32,#33,#207,.T.);
#209=CARTESIAN_POINT('',(48.,18.,12.));
#210=DIRECTION('',(-1.,0.,0.));
#211=VECTOR('',#210,60.);
#212=LINE('',#209,#211);
#213=EDGE_CURVE('',#44,#45,#212,.T.);
#214=CARTESIAN_POINT('',(30.,30.,-12.));
#215=DIRECTION('',(0.5570860145311555,-0.37139067635410367,0.7427813527082073));
#216=VECTOR('',#215,32.31098884280703);
#217=LINE('',#214,#216);
#218=EDGE_CURVE('',#32,#44,#217,.T.);
#219=CARTESIAN_POINT('',(-30.,30.,-12.));
#220=DIRECTION('',(-0.7071067811865475,-0.7071067811865475,0.));
#221=VECTOR('',#220,14.142135623730951);
#222=LINE('',#219,#221);
#223=EDGE_CURVE('',#33,#34,#222,.T.);
#224=CARTESIAN_POINT('',(-12.,18.,12.));
#225=DIRECTION('',(-0.7071067811865475,-0.7071067811865475,0.));
#226=VECTOR('',#225,14.142135623730951);
#227=LINE('',#224,#226);
#228=EDGE_CURVE('',#45,#46,#227,.T.);
#229=CARTESIAN_POINT('',(-30.,30.,-12.));
#230=DIRECTION('',(0.5570860145311555,-0.37139067635410367,0.7427813527082073));
#231=VECTOR('',#230,32.31098884280703);
#232=LINE('',#229,#231);
#233=EDGE_CURVE('',#33,#45,#232,.T.);
#234=CARTESIAN_POINT('',(-40.,20.,-12.));
#235=DIRECTION('',(0.,-1.,0.));
#236=VECTOR('',#235,40.);
#237=LINE('',#234,#236);
#238=EDGE_CURVE('',#34,#27,#237,.T.);
#239=CARTESIAN_POINT('',(-22.,8.,12.));
#240=DIRECTION('',(0.,-1.,0.));
#241=VECTOR('',#240,40.);
#242=LINE('',#239,#241);
#243=EDGE_CURVE('',#46,#39,#242,.T.);
#244=CARTESIAN_POINT('',(-40.,20.,-12.));
#245=DIRECTION('',(0.5570860145311555,-0.37139067635410367,0.7427813527082073));
#246=VECTOR('',#245,32.31098884280703);
#247=LINE('',#244,#246);
#248=EDGE_CURVE('',#34,#46,#247,.T.);
#249=CARTESIAN_POINT('',(-34.,8.,-12.));
#250=DIRECTION('',(1.,0.,0.));
#251=VECTOR('',#250,12.);
#252=LINE('',#249,#251);
#253=EDGE_CURVE('',#35,#36,#252,.T.);
#254=CARTESIAN_POINT('',(-16.,-4.,12.));
#255=DIRECTION('',(1.,0.,0.));
#256=VECTOR('',#255,12.);
#257=LINE('',#254,#256);
#258=EDGE_CURVE('',#47,#48,#257,.T.);
#259=CARTESIAN_POINT('',(-34.,8.,-12.));
#260=DIRECTION('',(0.5570860145311555,-0.37139067635410367,0.7427813527082073));
#261=VECTOR('',#260,32.31098884280703);
#262=LINE('',#259,#261);
#263=EDGE_CURVE('',#35,#47,#262,.T.);
#264=CARTESIAN_POINT('',(-22.,8.,-12.));
#265=DIRECTION('',(0.,-1.,0.));
#266=VECTOR('',#265,16.);
#267=LINE('',#264,#266);
#268=EDGE_CURVE('',#36,#37,#267,.T.);
#269=CARTESIAN_POINT('',(-4.,-4.,12.));
#270=DIRECTION('',(0.,-1.,0.));
#271=VECTOR('',#270,16.);
#272=LINE('',#269,#271);
#273=EDGE_CURVE('',#48,#49,#272,.T.);
#274=CARTESIAN_POINT('',(-22.,8.,-12.));
#275=DIRECTION('',(0.5570860145311555,-0.37139067635410367,0.7427813527082073));
#276=VECTOR('',#275,32.31098884280703);
#277=LINE('',#274,#276);
#278=EDGE_CURVE('',#36,#48,#277,.T.);
#279=CARTESIAN_POINT('',(-22.,-8.,-12.));
#280=DIRECTION('',(-1.,0.,0.));
#281=VECTOR('',#280,12.);
#282=LINE('',#279,#281);
#283=EDGE_CURVE('',#37,#38,#282,.T.);
#284=CARTESIAN_POINT('',(-4.,-20.,12.));
#285=DIRECTION('',(-1.,0.,0.));
#286=VECTOR('',#285,12.);
#287=LINE('',#284,#286);
#288=EDGE_CURVE('',#49,#50,#287,.T.);
#289=CARTESIAN_POINT('',(-22.,-8.,-12.));
#290=DIRECTION('',(0.5570860145311555,-0.37139067635410367,0.7427813527082073));
#291=VECTOR('',#290,32.31098884280703);
#292=LINE('',#289,#291);
#293=EDGE_CURVE('',#37,#49,#292,.T.);
#294=CARTESIAN_POINT('',(-34.,-8.,-12.));
#295=DIRECTION('',(0.,1.,0.));
#296=VECTOR('',#295,16.);
#297=LINE('',#294,#296);
#298=EDGE_CURVE('',#38,#35,#297,.T.);
#299=CARTESIAN_POINT('',(-16.,-20.,12.));
#300=DIRECTION('',(0.,1.,0.));
#301=VECTOR('',#300,16.);
#302=LINE('',#299,#301);
#303=EDGE_CURVE('',#50,#47,#302,.T.);
#304=CARTESIAN_POINT('',(-34.,-8.,-12.));
#305=DIRECTION('',(0.5570860145311555,-0.37139067635410367,0.7427813527082073));
#306=VECTOR('',#305,32.31098884280703);
#307=LINE('',#304,#306);
#308=EDGE_CURVE('',#38,#50,#307,.T.);
#309=CARTESIAN_POINT('',(24.,0.,-12.));
#310=DIRECTION('',(0.,0.,1.));
#311=DIRECTION('',(1.,0.,0.));
#312=AXIS2_PLACEMENT_3D('',#309,#310,#311);
#313=CIRCLE('',#312,4.);
#314=EDGE_CURVE('',#51,#51,#313,.T.);
#315=CARTESIAN_POINT('',(24.,0.,12.));
#316=DIRECTION('',(0.,0.,1.));
#317=DIRECTION('',(1.,0.,0.));
#318=AXIS2_PLACEMENT_3D('',#315,#316,#317);
#319=CIRCLE('',#318,4.);
#320=EDGE_CURVE('',#52,#52,#319,.T.);
#321=CARTESIAN_POINT('',(28.,0.,-12.));
#322=DIRECTION('',(0.,0.,1.));
#323=VECTOR('',#322,24.);
#324=LINE('',#321,#323);
#325=CARTESIAN_POINT('',(6.283185307179586,0.));
#326=DIRECTION('',(0.,1.));
#327=VECTOR('',#326,24.);
#328=LINE('',#325,#327);
#329=DEFINITIONAL_REPRESENTATION('',(#328),#128);
#330=PCURVE('',#127,#329);
#331=CARTESIAN_POINT('',(0.,0.));
#332=DIRECTION('',(0.,1.));
#333=VECTOR('',#332,24.);
#334=LINE('',#331,#333);
#335=DEFINITIONAL_REPRESENTATION('',(#334),#128);
#336=PCURVE('',#127,#335);
#337=SEAM_CURVE('',#324,(#330,#336),.CURVE_3D.);
#338=EDGE_CURVE('',#51,#52,#337,.T.);
#339=ORIENTED_EDGE('',*,*,#133,.T.);
#340=ORIENTED_EDGE('',*,*,#148,.T.);
#341=ORIENTED_EDGE('',*,*,#163,.T.);
#342=ORIENTED_EDGE('',*,*,#178,.T.);
#343=ORIENTED_EDGE('',*,*,#193,.T.);
#344=ORIENTED_EDGE('',*,*,#208,.T.);
#345=ORIENTED_EDGE('',*,*,#223,.T.);
#346=ORIENTED_EDGE('',*,*,#238,.T.);
#347=EDGE_LOOP('',(#339,#340,#341,#342,#343,#344,#345,#346));
#348=FACE_OUTER_BOUND('',#347,.T.);
#349=ORIENTED_EDGE('',*,*,#253,.T.);
#350=ORIENTED_EDGE('',*,*,#268,.T.);
#351=ORIENTED_EDGE('',*,*,#283,.T.);
#352=ORIENTED_EDGE('',*,*,#298,.T.);
#353=EDGE_LOOP('',(#349,#350,#351,#352));
#354=FACE_BOUND('',#353,.T.);
#355=ORIENTED_EDGE('',*,*,#314,.F.);
#356=EDGE_LOOP('',(#355));
#357=FACE_BOUND('',#356,.T.);
#358=ADVANCED_FACE('',(#348,#354,#357),#57,.F.);
#359=ORIENTED_EDGE('',*,*,#138,.T.);
#360=ORIENTED_EDGE('',*,*,#153,.T.);
#361=ORIENTED_EDGE('',*,*,#168,.T.);
#362=ORIENTED_EDGE('',*,*,#183,.T.);
#363=ORIENTED_EDGE('',*,*,#198,.T.);
#364=ORIENTED_EDGE('',*,*,#213,.T.);
#365=ORIENTED_EDGE('',*,*,#228,.T.);
#366=ORIENTED_EDGE('',*,*,#243,.T.);
#367=EDGE_LOOP('',(#359,#360,#361,#362,#363,#364,#365,#366));
#368=FACE_OUTER_BOUND('',#367,.T.);
#369=ORIENTED_EDGE('',*,*,#258,.T.);
#370=ORIENTED_EDGE('',*,*,#273,.T.);
#371=ORIENTED_EDGE('',*,*,#288,.T.);
#372=ORIENTED_EDGE('',*,*,#303,.T.);
#373=EDGE_LOOP('',(#369,#370,#371,#372));
#374=FACE_BOUND('',#373,.T.);
#375=ORIENTED_EDGE('',*,*,#320,.F.);
#376=EDGE_LOOP('',(#375));
#377=FACE_BOUND('',#376,.T.);
#378=ADVANCED_FACE('',(#368,#374,#377),#62,.T.);
#379=ORIENTED_EDGE('',*,*,#133,.T.);
#380=ORIENTED_EDGE('',*,*,#158,.T.);
#381=ORIENTED_EDGE('',*,*,#138,.F.);
#382=ORIENTED_EDGE('',*,*,#143,.F.);
#383=EDGE_LOOP('',(#379,#380,#381,#382));
#384=FACE_OUTER_BOUND('',#383,.T.);
#385=ADVANCED_FACE('',(#384),#67,.T.);
#386=ORIENTED_EDGE('',*,*,#148,.T.);
#387=ORIENTED_EDGE('',*,*,#173,.T.);
#388=ORIENTED_EDGE('',*,*,#153,.F.);
#389=ORIENTED_EDGE('',*,*,#158,.F.);
#390=EDGE_LOOP('',(#386,#387,#388,#389));
#391=FACE_OUTER_BOUND('',#390,.T.);
#392=ADVANCED_FACE('',(#391),#72,.T.);
#393=ORIENTED_EDGE('',*,*,#163,.T.);
#394=ORIENTED_EDGE('',*,*,#188,.T.);
#395=ORIENTED_EDGE('',*,*,#168,.F.);
#396=ORIENTED_EDGE('',*,*,#173,.F.);
#397=EDGE_LOOP('',(#393,#394,#395,#396));
#398=FACE_OUTER_BOUND('',#397,.T.);
#399=ADVANCED_FACE('',(#398),#77,.T.);
#400=ORIENTED_EDGE('',*,*,#178,.T.);
#401=ORIENTED_EDGE('',*,*,#203,.T.);
#402=ORIENTED_EDGE('',*,*,#183,.F.);
#403=ORIENTED_EDGE('',*,*,#188,.F.);
#404=EDGE_LOOP('',(#400,#401,#402,#403));
#405=FACE_OUTER_BOUND('',#404,.T.);
#406=ADVANCED_FACE('',(#405),#82,.T.);
#407=ORIENTED_EDGE('',*,*,#193,.T.);
#408=ORIENTED_EDGE('',*,*,#218,.T.);
#409=ORIENTED_EDGE('',*,*,#198,.F.);
#410=ORIENTED_EDGE('',*,*,#203,.F.);
#411=EDGE_LOOP('',(#407,#408,#409,#410));
#412=FACE_OUTER_BOUND('',#411,.T.);
#413=ADVANCED_FACE('',(#412),#87,.T.);
#414=ORIENTED_EDGE('',*,*,#208,.T.);
#415=ORIENTED_EDGE('',*,*,#233,.T.);
#416=ORIENTED_EDGE('',*,*,#213,.F.);
#417=ORIENTED_EDGE('',*,*,#218,.F.);
#418=EDGE_LOOP('',(#414,#415,#416,#417));
#419=FACE_OUTER_BOUND('',#418,.T.);
#420=ADVANCED_FACE('',(#419),#92,.T.);
#421=ORIENTED_EDGE('',*,*,#223,.T.);
#422=ORIENTED_EDGE('',*,*,#248,.T.);
#423=ORIENTED_EDGE('',*,*,#228,.F.);
#424=ORIENTED_EDGE('',*,*,#233,.F.);
#425=EDGE_LOOP('',(#421,#422,#423,#424));
#426=FACE_OUTER_BOUND('',#425,.T.);
#427=ADVANCED_FACE('',(#426),#97,.T.);
#428=ORIENTED_EDGE('',*,*,#238,.T.);
#429=ORIENTED_EDGE('',*,*,#143,.T.);
#430=ORIENTED_EDGE('',*,*,#243,.F.);
#431=ORIENTED_EDGE('',*,*,#248,.F.);
#432=EDGE_LOOP('',(#428,#429,#430,#431));
#433=FACE_OUTER_BOUND('',#432,.T.);
#434=ADVANCED_FACE('',(#433),#102,.T.);
#435=ORIENTED_EDGE('',*,*,#253,.T.);
#436=ORIENTED_EDGE('',*,*,#278,.T.);
#437=ORIENTED_EDGE('',*,*,#258,.F.);
#438=ORIENTED_EDGE('',*,*,#263,.F.);
#439=EDGE_LOOP('',(#435,#436,#437,#438));
#440=FACE_OUTER_BOUND('',#439,.T.);
#441=ADVANCED_FACE('',(#440),#107,.T.);
#442=ORIENTED_EDGE('',*,*,#268,.T.);
#443=ORIENTED_EDGE('',*,*,#293,.T.);
#444=ORIENTED_EDGE('',*,*,#273,.F.);
#445=ORIENTED_EDGE('',*,*,#278,.F.);
#446=EDGE_LOOP('',(#442,#443,#444,#445));
#447=FACE_OUTER_BOUND('',#446,.T.);
#448=ADVANCED_FACE('',(#447),#112,.T.);
#449=ORIENTED_EDGE('',*,*,#283,.T.);
#450=ORIENTED_EDGE('',*,*,#308,.T.);
#451=ORIENTED_EDGE('',*,*,#288,.F.);
#452=ORIENTED_EDGE('',*,*,#293,.F.);
#453=EDGE_LOOP('',(#449,#450,#451,#452));
#454=FACE_OUTER_BOUND('',#453,.T.);
#455=ADVANCED_FACE('',(#454),#117,.T.);
#456=ORIENTED_EDGE('',*,*,#298,.T.);
#457=ORIENTED_EDGE('',*,*,#263,.T.);
#458=ORIENTED_EDGE('',*,*,#303,.F.);
#459=ORIENTED_EDGE('',*,*,#308,.F.);
#460=EDGE_LOOP('',(#456,#457,#458,#459));
#461=FACE_OUTER_BOUND('',#460,.T.);
#462=ADVANCED_FACE('',(#461),#122,.T.);
#463=ORIENTED_EDGE('',*,*,#314,.T.);
#464=ORIENTED_EDGE('',*,*,#338,.T.);
#465=ORIENTED_EDGE('',*,*,#320,.F.);
#466=ORIENTED_EDGE('',*,*,#338,.F.);
#467=EDGE_LOOP('',(#463,#464,#465,#466));
#468=FACE_OUTER_BOUND('',#467,.T.);
#469=ADVANCED_FACE('',(#468),#127,.F.);
#470=CLOSED_SHELL('',(#358,#378,#385,#392,#399,#406,#413,#420,#427,#434,#441,#448,#455,#462,#469));
#471=MANIFOLD_SOLID_BREP('Hagane part',#470);
#472=(LENGTH_UNIT() NAMED_UNIT(*) SI_UNIT(.MILLI.,.METRE.));
#473=(NAMED_UNIT(*) PLANE_ANGLE_UNIT() SI_UNIT($,.RADIAN.));
#474=(NAMED_UNIT(*) SI_UNIT($,.STERADIAN.) SOLID_ANGLE_UNIT());
#475=UNCERTAINTY_MEASURE_WITH_UNIT(LENGTH_MEASURE(0.00000001),#472,'distance_accuracy_value','');
#476=(GEOMETRIC_REPRESENTATION_CONTEXT(3) GLOBAL_UNCERTAINTY_ASSIGNED_CONTEXT((#475)) GLOBAL_UNIT_ASSIGNED_CONTEXT((#472,#473,#474)) REPRESENTATION_CONTEXT('',''));
#477=ADVANCED_BREP_SHAPE_REPRESENTATION('',(#471),#476);
#478=APPLICATION_CONTEXT('automotive_design');
#479=APPLICATION_PROTOCOL_DEFINITION('international standard','automotive_design',2000,#478);
#480=PRODUCT_CONTEXT('',#478,'mechanical');
#481=PRODUCT('hagane','Hagane part','',(#480));
#482=PRODUCT_DEFINITION_FORMATION('','',#481);
#483=PRODUCT_DEFINITION_CONTEXT('part definition',#478,'design');
#484=PRODUCT_DEFINITION('design','',#482,#483);
#485=PRODUCT_DEFINITION_SHAPE('','',#484);
#486=SHAPE_DEFINITION_REPRESENTATION(#485,#477);
ENDSEC;
END-ISO-10303-21;
