ISO-10303-21;
HEADER;
FILE_DESCRIPTION(('Hagane exact B-rep'),'2;1');
FILE_NAME('hagane.step','',('Hagane'),(''),'Hagane','Hagane','');
FILE_SCHEMA(('AUTOMOTIVE_DESIGN'));
ENDSEC;
DATA;
#1=CARTESIAN_POINT('',(-10.,-8.,0.));
#2=CARTESIAN_POINT('',(10.,-8.,0.));
#3=CARTESIAN_POINT('',(10.,8.,0.));
#4=CARTESIAN_POINT('',(-10.,8.,0.));
#5=CARTESIAN_POINT('',(-10.,-8.,5.));
#6=CARTESIAN_POINT('',(10.,-8.,5.));
#7=CARTESIAN_POINT('',(10.,8.,5.));
#8=CARTESIAN_POINT('',(-10.,8.,5.));
#9=CARTESIAN_POINT('',(-3.,0.,3.));
#10=CARTESIAN_POINT('',(-4.,1.,3.));
#11=CARTESIAN_POINT('',(-5.,0.00000000000000012246467991473532,3.));
#12=CARTESIAN_POINT('',(-4.,-1.,3.));
#13=CARTESIAN_POINT('',(-3.,0.,5.));
#14=CARTESIAN_POINT('',(-4.,1.,5.));
#15=CARTESIAN_POINT('',(-5.,0.00000000000000012246467991473532,5.));
#16=CARTESIAN_POINT('',(-4.,-1.,5.));
#17=CARTESIAN_POINT('',(5.,0.,3.));
#18=CARTESIAN_POINT('',(4.,1.,3.));
#19=CARTESIAN_POINT('',(3.,0.00000000000000012246467991473532,3.));
#20=CARTESIAN_POINT('',(4.,-1.,3.));
#21=CARTESIAN_POINT('',(5.,0.,5.));
#22=CARTESIAN_POINT('',(4.,1.,5.));
#23=CARTESIAN_POINT('',(3.,0.00000000000000012246467991473532,5.));
#24=CARTESIAN_POINT('',(4.,-1.,5.));
#25=VERTEX_POINT('',#1);
#26=VERTEX_POINT('',#2);
#27=VERTEX_POINT('',#3);
#28=VERTEX_POINT('',#4);
#29=VERTEX_POINT('',#5);
#30=VERTEX_POINT('',#6);
#31=VERTEX_POINT('',#7);
#32=VERTEX_POINT('',#8);
#33=VERTEX_POINT('',#9);
#34=VERTEX_POINT('',#10);
#35=VERTEX_POINT('',#11);
#36=VERTEX_POINT('',#12);
#37=VERTEX_POINT('',#13);
#38=VERTEX_POINT('',#14);
#39=VERTEX_POINT('',#15);
#40=VERTEX_POINT('',#16);
#41=VERTEX_POINT('',#17);
#42=VERTEX_POINT('',#18);
#43=VERTEX_POINT('',#19);
#44=VERTEX_POINT('',#20);
#45=VERTEX_POINT('',#21);
#46=VERTEX_POINT('',#22);
#47=VERTEX_POINT('',#23);
#48=VERTEX_POINT('',#24);
#49=CARTESIAN_POINT('',(-10.,-8.,0.));
#50=DIRECTION('',(0.,0.,1.));
#51=DIRECTION('',(1.,0.,0.));
#52=AXIS2_PLACEMENT_3D('',#49,#50,#51);
#53=PLANE('',#52);
#54=CARTESIAN_POINT('',(-10.,-8.,5.));
#55=DIRECTION('',(0.,0.,1.));
#56=DIRECTION('',(1.,0.,0.));
#57=AXIS2_PLACEMENT_3D('',#54,#55,#56);
#58=PLANE('',#57);
#59=CARTESIAN_POINT('',(-10.,-8.,0.));
#60=DIRECTION('',(0.,-1.,0.));
#61=DIRECTION('',(1.,0.,0.));
#62=AXIS2_PLACEMENT_3D('',#59,#60,#61);
#63=PLANE('',#62);
#64=CARTESIAN_POINT('',(10.,-8.,0.));
#65=DIRECTION('',(1.,0.,0.));
#66=DIRECTION('',(0.,1.,0.));
#67=AXIS2_PLACEMENT_3D('',#64,#65,#66);
#68=PLANE('',#67);
#69=CARTESIAN_POINT('',(10.,8.,0.));
#70=DIRECTION('',(0.,1.,-0.));
#71=DIRECTION('',(-1.,0.,0.));
#72=AXIS2_PLACEMENT_3D('',#69,#70,#71);
#73=PLANE('',#72);
#74=CARTESIAN_POINT('',(-10.,8.,0.));
#75=DIRECTION('',(-1.,0.,0.));
#76=DIRECTION('',(0.,-1.,0.));
#77=AXIS2_PLACEMENT_3D('',#74,#75,#76);
#78=PLANE('',#77);
#79=CARTESIAN_POINT('',(-4.,0.,3.));
#80=DIRECTION('',(0.,0.,1.));
#81=DIRECTION('',(1.,0.,0.));
#82=AXIS2_PLACEMENT_3D('',#79,#80,#81);
#83=PLANE('',#82);
#84=CARTESIAN_POINT('',(-4.,0.,3.));
#85=DIRECTION('',(0.,0.,1.));
#86=DIRECTION('',(1.,0.,0.));
#87=AXIS2_PLACEMENT_3D('',#84,#85,#86);
#88=CYLINDRICAL_SURFACE('',#87,1.);
#89=CARTESIAN_POINT('',(-4.,0.,3.));
#90=DIRECTION('',(0.,-0.,1.));
#91=DIRECTION('',(0.00000000000000006123233995736766,1.,0.));
#92=AXIS2_PLACEMENT_3D('',#89,#90,#91);
#93=CYLINDRICAL_SURFACE('',#92,1.);
#94=CARTESIAN_POINT('',(-4.,0.,3.));
#95=DIRECTION('',(0.,0.,1.));
#96=DIRECTION('',(-1.,0.00000000000000012246467991473532,0.));
#97=AXIS2_PLACEMENT_3D('',#94,#95,#96);
#98=CYLINDRICAL_SURFACE('',#97,1.);
#99=CARTESIAN_POINT('',(-4.,0.,3.));
#100=DIRECTION('',(0.,0.,1.));
#101=DIRECTION('',(-0.00000000000000018369701987210297,-1.,0.));
#102=AXIS2_PLACEMENT_3D('',#99,#100,#101);
#103=CYLINDRICAL_SURFACE('',#102,1.);
#104=CARTESIAN_POINT('',(4.,0.,3.));
#105=DIRECTION('',(0.,0.,1.));
#106=DIRECTION('',(1.,0.,0.));
#107=AXIS2_PLACEMENT_3D('',#104,#105,#106);
#108=PLANE('',#107);
#109=CARTESIAN_POINT('',(4.,0.,3.));
#110=DIRECTION('',(0.,0.,1.));
#111=DIRECTION('',(1.,0.,0.));
#112=AXIS2_PLACEMENT_3D('',#109,#110,#111);
#113=CYLINDRICAL_SURFACE('',#112,1.);
#114=CARTESIAN_POINT('',(4.,0.,3.));
#115=DIRECTION('',(0.,-0.,1.));
#116=DIRECTION('',(0.00000000000000006123233995736766,1.,0.));
#117=AXIS2_PLACEMENT_3D('',#114,#115,#116);
#118=CYLINDRICAL_SURFACE('',#117,1.);
#119=CARTESIAN_POINT('',(4.,0.,3.));
#120=DIRECTION('',(0.,0.,1.));
#121=DIRECTION('',(-1.,0.00000000000000012246467991473532,0.));
#122=AXIS2_PLACEMENT_3D('',#119,#120,#121);
#123=CYLINDRICAL_SURFACE('',#122,1.);
#124=CARTESIAN_POINT('',(4.,0.,3.));
#125=DIRECTION('',(0.,0.,1.));
#126=DIRECTION('',(-0.00000000000000018369701987210297,-1.,0.));
#127=AXIS2_PLACEMENT_3D('',#124,#125,#126);
#128=CYLINDRICAL_SURFACE('',#127,1.);
#129=(GEOMETRIC_REPRESENTATION_CONTEXT(2) REPRESENTATION_CONTEXT('',''));
#130=CARTESIAN_POINT('',(-10.,-8.,0.));
#131=DIRECTION('',(1.,0.,0.));
#132=VECTOR('',#131,20.);
#133=LINE('',#130,#132);
#134=CARTESIAN_POINT('',(0.,0.));
#135=DIRECTION('',(1.,0.));
#136=VECTOR('',#135,20.);
#137=LINE('',#134,#136);
#138=DEFINITIONAL_REPRESENTATION('',(#137),#129);
#139=PCURVE('',#53,#138);
#140=CARTESIAN_POINT('',(0.,0.));
#141=DIRECTION('',(1.,0.));
#142=VECTOR('',#141,20.);
#143=LINE('',#140,#142);
#144=DEFINITIONAL_REPRESENTATION('',(#143),#129);
#145=PCURVE('',#63,#144);
#146=SURFACE_CURVE('',#133,(#139,#145),.CURVE_3D.);
#147=EDGE_CURVE('',#25,#26,#146,.T.);
#148=CARTESIAN_POINT('',(10.,-8.,0.));
#149=DIRECTION('',(0.,1.,0.));
#150=VECTOR('',#149,16.);
#151=LINE('',#148,#150);
#152=CARTESIAN_POINT('',(20.,0.));
#153=DIRECTION('',(0.,1.));
#154=VECTOR('',#153,16.);
#155=LINE('',#152,#154);
#156=DEFINITIONAL_REPRESENTATION('',(#155),#129);
#157=PCURVE('',#53,#156);
#158=CARTESIAN_POINT('',(0.,0.));
#159=DIRECTION('',(1.,0.));
#160=VECTOR('',#159,16.);
#161=LINE('',#158,#160);
#162=DEFINITIONAL_REPRESENTATION('',(#161),#129);
#163=PCURVE('',#68,#162);
#164=SURFACE_CURVE('',#151,(#157,#163),.CURVE_3D.);
#165=EDGE_CURVE('',#26,#27,#164,.T.);
#166=CARTESIAN_POINT('',(10.,8.,0.));
#167=DIRECTION('',(-1.,0.,0.));
#168=VECTOR('',#167,20.);
#169=LINE('',#166,#168);
#170=CARTESIAN_POINT('',(20.,16.));
#171=DIRECTION('',(-1.,0.));
#172=VECTOR('',#171,20.);
#173=LINE('',#170,#172);
#174=DEFINITIONAL_REPRESENTATION('',(#173),#129);
#175=PCURVE('',#53,#174);
#176=CARTESIAN_POINT('',(0.,0.));
#177=DIRECTION('',(1.,0.));
#178=VECTOR('',#177,20.);
#179=LINE('',#176,#178);
#180=DEFINITIONAL_REPRESENTATION('',(#179),#129);
#181=PCURVE('',#73,#180);
#182=SURFACE_CURVE('',#169,(#175,#181),.CURVE_3D.);
#183=EDGE_CURVE('',#27,#28,#182,.T.);
#184=CARTESIAN_POINT('',(-10.,8.,0.));
#185=DIRECTION('',(0.,-1.,0.));
#186=VECTOR('',#185,16.);
#187=LINE('',#184,#186);
#188=CARTESIAN_POINT('',(0.,16.));
#189=DIRECTION('',(0.,-1.));
#190=VECTOR('',#189,16.);
#191=LINE('',#188,#190);
#192=DEFINITIONAL_REPRESENTATION('',(#191),#129);
#193=PCURVE('',#53,#192);
#194=CARTESIAN_POINT('',(0.,0.));
#195=DIRECTION('',(1.,0.));
#196=VECTOR('',#195,16.);
#197=LINE('',#194,#196);
#198=DEFINITIONAL_REPRESENTATION('',(#197),#129);
#199=PCURVE('',#78,#198);
#200=SURFACE_CURVE('',#187,(#193,#199),.CURVE_3D.);
#201=EDGE_CURVE('',#28,#25,#200,.T.);
#202=CARTESIAN_POINT('',(-10.,-8.,5.));
#203=DIRECTION('',(1.,0.,0.));
#204=VECTOR('',#203,20.);
#205=LINE('',#202,#204);
#206=CARTESIAN_POINT('',(0.,0.));
#207=DIRECTION('',(1.,0.));
#208=VECTOR('',#207,20.);
#209=LINE('',#206,#208);
#210=DEFINITIONAL_REPRESENTATION('',(#209),#129);
#211=PCURVE('',#58,#210);
#212=CARTESIAN_POINT('',(0.,5.));
#213=DIRECTION('',(1.,0.));
#214=VECTOR('',#213,20.);
#215=LINE('',#212,#214);
#216=DEFINITIONAL_REPRESENTATION('',(#215),#129);
#217=PCURVE('',#63,#216);
#218=SURFACE_CURVE('',#205,(#211,#217),.CURVE_3D.);
#219=EDGE_CURVE('',#29,#30,#218,.T.);
#220=CARTESIAN_POINT('',(10.,-8.,5.));
#221=DIRECTION('',(0.,1.,0.));
#222=VECTOR('',#221,16.);
#223=LINE('',#220,#222);
#224=CARTESIAN_POINT('',(20.,0.));
#225=DIRECTION('',(0.,1.));
#226=VECTOR('',#225,16.);
#227=LINE('',#224,#226);
#228=DEFINITIONAL_REPRESENTATION('',(#227),#129);
#229=PCURVE('',#58,#228);
#230=CARTESIAN_POINT('',(0.,5.));
#231=DIRECTION('',(1.,0.));
#232=VECTOR('',#231,16.);
#233=LINE('',#230,#232);
#234=DEFINITIONAL_REPRESENTATION('',(#233),#129);
#235=PCURVE('',#68,#234);
#236=SURFACE_CURVE('',#223,(#229,#235),.CURVE_3D.);
#237=EDGE_CURVE('',#30,#31,#236,.T.);
#238=CARTESIAN_POINT('',(10.,8.,5.));
#239=DIRECTION('',(-1.,0.,0.));
#240=VECTOR('',#239,20.);
#241=LINE('',#238,#240);
#242=CARTESIAN_POINT('',(20.,16.));
#243=DIRECTION('',(-1.,0.));
#244=VECTOR('',#243,20.);
#245=LINE('',#242,#244);
#246=DEFINITIONAL_REPRESENTATION('',(#245),#129);
#247=PCURVE('',#58,#246);
#248=CARTESIAN_POINT('',(0.,5.));
#249=DIRECTION('',(1.,0.));
#250=VECTOR('',#249,20.);
#251=LINE('',#248,#250);
#252=DEFINITIONAL_REPRESENTATION('',(#251),#129);
#253=PCURVE('',#73,#252);
#254=SURFACE_CURVE('',#241,(#247,#253),.CURVE_3D.);
#255=EDGE_CURVE('',#31,#32,#254,.T.);
#256=CARTESIAN_POINT('',(-10.,8.,5.));
#257=DIRECTION('',(0.,-1.,0.));
#258=VECTOR('',#257,16.);
#259=LINE('',#256,#258);
#260=CARTESIAN_POINT('',(0.,16.));
#261=DIRECTION('',(0.,-1.));
#262=VECTOR('',#261,16.);
#263=LINE('',#260,#262);
#264=DEFINITIONAL_REPRESENTATION('',(#263),#129);
#265=PCURVE('',#58,#264);
#266=CARTESIAN_POINT('',(0.,5.));
#267=DIRECTION('',(1.,0.));
#268=VECTOR('',#267,16.);
#269=LINE('',#266,#268);
#270=DEFINITIONAL_REPRESENTATION('',(#269),#129);
#271=PCURVE('',#78,#270);
#272=SURFACE_CURVE('',#259,(#265,#271),.CURVE_3D.);
#273=EDGE_CURVE('',#32,#29,#272,.T.);
#274=CARTESIAN_POINT('',(-10.,-8.,0.));
#275=DIRECTION('',(0.,0.,1.));
#276=VECTOR('',#275,5.);
#277=LINE('',#274,#276);
#278=CARTESIAN_POINT('',(0.,0.));
#279=DIRECTION('',(0.,1.));
#280=VECTOR('',#279,5.);
#281=LINE('',#278,#280);
#282=DEFINITIONAL_REPRESENTATION('',(#281),#129);
#283=PCURVE('',#63,#282);
#284=CARTESIAN_POINT('',(16.,0.));
#285=DIRECTION('',(0.,1.));
#286=VECTOR('',#285,5.);
#287=LINE('',#284,#286);
#288=DEFINITIONAL_REPRESENTATION('',(#287),#129);
#289=PCURVE('',#78,#288);
#290=SURFACE_CURVE('',#277,(#283,#289),.CURVE_3D.);
#291=EDGE_CURVE('',#25,#29,#290,.T.);
#292=CARTESIAN_POINT('',(10.,-8.,0.));
#293=DIRECTION('',(0.,0.,1.));
#294=VECTOR('',#293,5.);
#295=LINE('',#292,#294);
#296=CARTESIAN_POINT('',(20.,0.));
#297=DIRECTION('',(0.,1.));
#298=VECTOR('',#297,5.);
#299=LINE('',#296,#298);
#300=DEFINITIONAL_REPRESENTATION('',(#299),#129);
#301=PCURVE('',#63,#300);
#302=CARTESIAN_POINT('',(0.,0.));
#303=DIRECTION('',(0.,1.));
#304=VECTOR('',#303,5.);
#305=LINE('',#302,#304);
#306=DEFINITIONAL_REPRESENTATION('',(#305),#129);
#307=PCURVE('',#68,#306);
#308=SURFACE_CURVE('',#295,(#301,#307),.CURVE_3D.);
#309=EDGE_CURVE('',#26,#30,#308,.T.);
#310=CARTESIAN_POINT('',(10.,8.,0.));
#311=DIRECTION('',(0.,0.,1.));
#312=VECTOR('',#311,5.);
#313=LINE('',#310,#312);
#314=CARTESIAN_POINT('',(16.,0.));
#315=DIRECTION('',(0.,1.));
#316=VECTOR('',#315,5.);
#317=LINE('',#314,#316);
#318=DEFINITIONAL_REPRESENTATION('',(#317),#129);
#319=PCURVE('',#68,#318);
#320=CARTESIAN_POINT('',(0.,0.));
#321=DIRECTION('',(0.,1.));
#322=VECTOR('',#321,5.);
#323=LINE('',#320,#322);
#324=DEFINITIONAL_REPRESENTATION('',(#323),#129);
#325=PCURVE('',#73,#324);
#326=SURFACE_CURVE('',#313,(#319,#325),.CURVE_3D.);
#327=EDGE_CURVE('',#27,#31,#326,.T.);
#328=CARTESIAN_POINT('',(-10.,8.,0.));
#329=DIRECTION('',(0.,0.,1.));
#330=VECTOR('',#329,5.);
#331=LINE('',#328,#330);
#332=CARTESIAN_POINT('',(20.,0.));
#333=DIRECTION('',(0.,1.));
#334=VECTOR('',#333,5.);
#335=LINE('',#332,#334);
#336=DEFINITIONAL_REPRESENTATION('',(#335),#129);
#337=PCURVE('',#73,#336);
#338=CARTESIAN_POINT('',(0.,0.));
#339=DIRECTION('',(0.,1.));
#340=VECTOR('',#339,5.);
#341=LINE('',#338,#340);
#342=DEFINITIONAL_REPRESENTATION('',(#341),#129);
#343=PCURVE('',#78,#342);
#344=SURFACE_CURVE('',#331,(#337,#343),.CURVE_3D.);
#345=EDGE_CURVE('',#28,#32,#344,.T.);
#346=CARTESIAN_POINT('',(-4.,0.,3.));
#347=DIRECTION('',(0.,0.,1.));
#348=DIRECTION('',(1.,0.,0.));
#349=AXIS2_PLACEMENT_3D('',#346,#347,#348);
#350=CIRCLE('',#349,1.);
#351=CARTESIAN_POINT('',(0.,0.));
#352=DIRECTION('',(1.,0.));
#353=AXIS2_PLACEMENT_2D('',#351,#352);
#354=CIRCLE('',#353,1.);
#355=DEFINITIONAL_REPRESENTATION('',(#354),#129);
#356=PCURVE('',#83,#355);
#357=CARTESIAN_POINT('',(0.,0.));
#358=DIRECTION('',(1.,0.));
#359=VECTOR('',#358,1.);
#360=LINE('',#357,#359);
#361=DEFINITIONAL_REPRESENTATION('',(#360),#129);
#362=PCURVE('',#88,#361);
#363=SURFACE_CURVE('',#350,(#356,#362),.CURVE_3D.);
#364=EDGE_CURVE('',#33,#34,#363,.T.);
#365=CARTESIAN_POINT('',(-4.,0.,5.));
#366=DIRECTION('',(0.,0.,1.));
#367=DIRECTION('',(1.,0.,0.));
#368=AXIS2_PLACEMENT_3D('',#365,#366,#367);
#369=CIRCLE('',#368,1.);
#370=CARTESIAN_POINT('',(6.,8.));
#371=DIRECTION('',(1.,0.));
#372=AXIS2_PLACEMENT_2D('',#370,#371);
#373=CIRCLE('',#372,1.);
#374=DEFINITIONAL_REPRESENTATION('',(#373),#129);
#375=PCURVE('',#58,#374);
#376=CARTESIAN_POINT('',(0.,2.));
#377=DIRECTION('',(1.,0.));
#378=VECTOR('',#377,1.);
#379=LINE('',#376,#378);
#380=DEFINITIONAL_REPRESENTATION('',(#379),#129);
#381=PCURVE('',#88,#380);
#382=SURFACE_CURVE('',#369,(#375,#381),.CURVE_3D.);
#383=EDGE_CURVE('',#37,#38,#382,.T.);
#384=CARTESIAN_POINT('',(-3.,0.,3.));
#385=DIRECTION('',(0.,0.,1.));
#386=VECTOR('',#385,2.);
#387=LINE('',#384,#386);
#388=CARTESIAN_POINT('',(0.,0.));
#389=DIRECTION('',(0.,1.));
#390=VECTOR('',#389,2.);
#391=LINE('',#388,#390);
#392=DEFINITIONAL_REPRESENTATION('',(#391),#129);
#393=PCURVE('',#88,#392);
#394=CARTESIAN_POINT('',(1.5707963267948966,0.));
#395=DIRECTION('',(0.,1.));
#396=VECTOR('',#395,2.);
#397=LINE('',#394,#396);
#398=DEFINITIONAL_REPRESENTATION('',(#397),#129);
#399=PCURVE('',#103,#398);
#400=SURFACE_CURVE('',#387,(#393,#399),.CURVE_3D.);
#401=EDGE_CURVE('',#33,#37,#400,.T.);
#402=CARTESIAN_POINT('',(-4.,0.,3.));
#403=DIRECTION('',(0.,-0.,1.));
#404=DIRECTION('',(0.00000000000000006123233995736766,1.,0.));
#405=AXIS2_PLACEMENT_3D('',#402,#403,#404);
#406=CIRCLE('',#405,1.);
#407=CARTESIAN_POINT('',(0.,0.));
#408=DIRECTION('',(0.00000000000000006123233995736766,1.));
#409=AXIS2_PLACEMENT_2D('',#407,#408);
#410=CIRCLE('',#409,1.);
#411=DEFINITIONAL_REPRESENTATION('',(#410),#129);
#412=PCURVE('',#83,#411);
#413=CARTESIAN_POINT('',(0.,0.));
#414=DIRECTION('',(1.,0.));
#415=VECTOR('',#414,1.);
#416=LINE('',#413,#415);
#417=DEFINITIONAL_REPRESENTATION('',(#416),#129);
#418=PCURVE('',#93,#417);
#419=SURFACE_CURVE('',#406,(#412,#418),.CURVE_3D.);
#420=EDGE_CURVE('',#34,#35,#419,.T.);
#421=CARTESIAN_POINT('',(-4.,0.,5.));
#422=DIRECTION('',(0.,-0.,1.));
#423=DIRECTION('',(0.00000000000000006123233995736766,1.,0.));
#424=AXIS2_PLACEMENT_3D('',#421,#422,#423);
#425=CIRCLE('',#424,1.);
#426=CARTESIAN_POINT('',(6.,8.));
#427=DIRECTION('',(0.00000000000000006123233995736766,1.));
#428=AXIS2_PLACEMENT_2D('',#426,#427);
#429=CIRCLE('',#428,1.);
#430=DEFINITIONAL_REPRESENTATION('',(#429),#129);
#431=PCURVE('',#58,#430);
#432=CARTESIAN_POINT('',(0.,2.));
#433=DIRECTION('',(1.,0.));
#434=VECTOR('',#433,1.);
#435=LINE('',#432,#434);
#436=DEFINITIONAL_REPRESENTATION('',(#435),#129);
#437=PCURVE('',#93,#436);
#438=SURFACE_CURVE('',#425,(#431,#437),.CURVE_3D.);
#439=EDGE_CURVE('',#38,#39,#438,.T.);
#440=CARTESIAN_POINT('',(-4.,1.,3.));
#441=DIRECTION('',(0.,0.,1.));
#442=VECTOR('',#441,2.);
#443=LINE('',#440,#442);
#444=CARTESIAN_POINT('',(1.5707963267948966,0.));
#445=DIRECTION('',(0.,1.));
#446=VECTOR('',#445,2.);
#447=LINE('',#444,#446);
#448=DEFINITIONAL_REPRESENTATION('',(#447),#129);
#449=PCURVE('',#88,#448);
#450=CARTESIAN_POINT('',(0.,0.));
#451=DIRECTION('',(0.,1.));
#452=VECTOR('',#451,2.);
#453=LINE('',#450,#452);
#454=DEFINITIONAL_REPRESENTATION('',(#453),#129);
#455=PCURVE('',#93,#454);
#456=SURFACE_CURVE('',#443,(#449,#455),.CURVE_3D.);
#457=EDGE_CURVE('',#34,#38,#456,.T.);
#458=CARTESIAN_POINT('',(-4.,0.,3.));
#459=DIRECTION('',(0.,0.,1.));
#460=DIRECTION('',(-1.,0.00000000000000012246467991473532,0.));
#461=AXIS2_PLACEMENT_3D('',#458,#459,#460);
#462=CIRCLE('',#461,1.);
#463=CARTESIAN_POINT('',(0.,0.));
#464=DIRECTION('',(-1.,0.00000000000000012246467991473532));
#465=AXIS2_PLACEMENT_2D('',#463,#464);
#466=CIRCLE('',#465,1.);
#467=DEFINITIONAL_REPRESENTATION('',(#466),#129);
#468=PCURVE('',#83,#467);
#469=CARTESIAN_POINT('',(0.,0.));
#470=DIRECTION('',(1.,0.));
#471=VECTOR('',#470,1.);
#472=LINE('',#469,#471);
#473=DEFINITIONAL_REPRESENTATION('',(#472),#129);
#474=PCURVE('',#98,#473);
#475=SURFACE_CURVE('',#462,(#468,#474),.CURVE_3D.);
#476=EDGE_CURVE('',#35,#36,#475,.T.);
#477=CARTESIAN_POINT('',(-4.,0.,5.));
#478=DIRECTION('',(0.,0.,1.));
#479=DIRECTION('',(-1.,0.00000000000000012246467991473532,0.));
#480=AXIS2_PLACEMENT_3D('',#477,#478,#479);
#481=CIRCLE('',#480,1.);
#482=CARTESIAN_POINT('',(6.,8.));
#483=DIRECTION('',(-1.,0.00000000000000012246467991473532));
#484=AXIS2_PLACEMENT_2D('',#482,#483);
#485=CIRCLE('',#484,1.);
#486=DEFINITIONAL_REPRESENTATION('',(#485),#129);
#487=PCURVE('',#58,#486);
#488=CARTESIAN_POINT('',(0.,2.));
#489=DIRECTION('',(1.,0.));
#490=VECTOR('',#489,1.);
#491=LINE('',#488,#490);
#492=DEFINITIONAL_REPRESENTATION('',(#491),#129);
#493=PCURVE('',#98,#492);
#494=SURFACE_CURVE('',#481,(#487,#493),.CURVE_3D.);
#495=EDGE_CURVE('',#39,#40,#494,.T.);
#496=CARTESIAN_POINT('',(-5.,0.00000000000000012246467991473532,3.));
#497=DIRECTION('',(0.,0.,1.));
#498=VECTOR('',#497,2.);
#499=LINE('',#496,#498);
#500=CARTESIAN_POINT('',(1.5707963267948966,0.));
#501=DIRECTION('',(0.,1.));
#502=VECTOR('',#501,2.);
#503=LINE('',#500,#502);
#504=DEFINITIONAL_REPRESENTATION('',(#503),#129);
#505=PCURVE('',#93,#504);
#506=CARTESIAN_POINT('',(0.,0.));
#507=DIRECTION('',(0.,1.));
#508=VECTOR('',#507,2.);
#509=LINE('',#506,#508);
#510=DEFINITIONAL_REPRESENTATION('',(#509),#129);
#511=PCURVE('',#98,#510);
#512=SURFACE_CURVE('',#499,(#505,#511),.CURVE_3D.);
#513=EDGE_CURVE('',#35,#39,#512,.T.);
#514=CARTESIAN_POINT('',(-4.,0.,3.));
#515=DIRECTION('',(0.,0.,1.));
#516=DIRECTION('',(-0.00000000000000018369701987210297,-1.,0.));
#517=AXIS2_PLACEMENT_3D('',#514,#515,#516);
#518=CIRCLE('',#517,1.);
#519=CARTESIAN_POINT('',(0.,0.));
#520=DIRECTION('',(-0.00000000000000018369701987210297,-1.));
#521=AXIS2_PLACEMENT_2D('',#519,#520);
#522=CIRCLE('',#521,1.);
#523=DEFINITIONAL_REPRESENTATION('',(#522),#129);
#524=PCURVE('',#83,#523);
#525=CARTESIAN_POINT('',(0.,0.));
#526=DIRECTION('',(1.,0.));
#527=VECTOR('',#526,1.);
#528=LINE('',#525,#527);
#529=DEFINITIONAL_REPRESENTATION('',(#528),#129);
#530=PCURVE('',#103,#529);
#531=SURFACE_CURVE('',#518,(#524,#530),.CURVE_3D.);
#532=EDGE_CURVE('',#36,#33,#531,.T.);
#533=CARTESIAN_POINT('',(-4.,0.,5.));
#534=DIRECTION('',(0.,0.,1.));
#535=DIRECTION('',(-0.00000000000000018369701987210297,-1.,0.));
#536=AXIS2_PLACEMENT_3D('',#533,#534,#535);
#537=CIRCLE('',#536,1.);
#538=CARTESIAN_POINT('',(6.,8.));
#539=DIRECTION('',(0.00000000000000006123233995736766,-1.));
#540=AXIS2_PLACEMENT_2D('',#538,#539);
#541=CIRCLE('',#540,1.);
#542=DEFINITIONAL_REPRESENTATION('',(#541),#129);
#543=PCURVE('',#58,#542);
#544=CARTESIAN_POINT('',(0.,2.));
#545=DIRECTION('',(1.,0.));
#546=VECTOR('',#545,1.);
#547=LINE('',#544,#546);
#548=DEFINITIONAL_REPRESENTATION('',(#547),#129);
#549=PCURVE('',#103,#548);
#550=SURFACE_CURVE('',#537,(#543,#549),.CURVE_3D.);
#551=EDGE_CURVE('',#40,#37,#550,.T.);
#552=CARTESIAN_POINT('',(-4.,-1.,3.));
#553=DIRECTION('',(0.,0.,1.));
#554=VECTOR('',#553,2.);
#555=LINE('',#552,#554);
#556=CARTESIAN_POINT('',(1.5707963267948966,0.));
#557=DIRECTION('',(0.,1.));
#558=VECTOR('',#557,2.);
#559=LINE('',#556,#558);
#560=DEFINITIONAL_REPRESENTATION('',(#559),#129);
#561=PCURVE('',#98,#560);
#562=CARTESIAN_POINT('',(0.,0.));
#563=DIRECTION('',(0.,1.));
#564=VECTOR('',#563,2.);
#565=LINE('',#562,#564);
#566=DEFINITIONAL_REPRESENTATION('',(#565),#129);
#567=PCURVE('',#103,#566);
#568=SURFACE_CURVE('',#555,(#561,#567),.CURVE_3D.);
#569=EDGE_CURVE('',#36,#40,#568,.T.);
#570=CARTESIAN_POINT('',(4.,0.,3.));
#571=DIRECTION('',(0.,0.,1.));
#572=DIRECTION('',(1.,0.,0.));
#573=AXIS2_PLACEMENT_3D('',#570,#571,#572);
#574=CIRCLE('',#573,1.);
#575=CARTESIAN_POINT('',(0.,0.));
#576=DIRECTION('',(1.,0.));
#577=AXIS2_PLACEMENT_2D('',#575,#576);
#578=CIRCLE('',#577,1.);
#579=DEFINITIONAL_REPRESENTATION('',(#578),#129);
#580=PCURVE('',#108,#579);
#581=CARTESIAN_POINT('',(0.,0.));
#582=DIRECTION('',(1.,0.));
#583=VECTOR('',#582,1.);
#584=LINE('',#581,#583);
#585=DEFINITIONAL_REPRESENTATION('',(#584),#129);
#586=PCURVE('',#113,#585);
#587=SURFACE_CURVE('',#574,(#580,#586),.CURVE_3D.);
#588=EDGE_CURVE('',#41,#42,#587,.T.);
#589=CARTESIAN_POINT('',(4.,0.,5.));
#590=DIRECTION('',(0.,0.,1.));
#591=DIRECTION('',(1.,0.,0.));
#592=AXIS2_PLACEMENT_3D('',#589,#590,#591);
#593=CIRCLE('',#592,1.);
#594=CARTESIAN_POINT('',(14.,8.));
#595=DIRECTION('',(1.,0.));
#596=AXIS2_PLACEMENT_2D('',#594,#595);
#597=CIRCLE('',#596,1.);
#598=DEFINITIONAL_REPRESENTATION('',(#597),#129);
#599=PCURVE('',#58,#598);
#600=CARTESIAN_POINT('',(0.,2.));
#601=DIRECTION('',(1.,0.));
#602=VECTOR('',#601,1.);
#603=LINE('',#600,#602);
#604=DEFINITIONAL_REPRESENTATION('',(#603),#129);
#605=PCURVE('',#113,#604);
#606=SURFACE_CURVE('',#593,(#599,#605),.CURVE_3D.);
#607=EDGE_CURVE('',#45,#46,#606,.T.);
#608=CARTESIAN_POINT('',(5.,0.,3.));
#609=DIRECTION('',(0.,0.,1.));
#610=VECTOR('',#609,2.);
#611=LINE('',#608,#610);
#612=CARTESIAN_POINT('',(0.,0.));
#613=DIRECTION('',(0.,1.));
#614=VECTOR('',#613,2.);
#615=LINE('',#612,#614);
#616=DEFINITIONAL_REPRESENTATION('',(#615),#129);
#617=PCURVE('',#113,#616);
#618=CARTESIAN_POINT('',(1.5707963267948966,0.));
#619=DIRECTION('',(0.,1.));
#620=VECTOR('',#619,2.);
#621=LINE('',#618,#620);
#622=DEFINITIONAL_REPRESENTATION('',(#621),#129);
#623=PCURVE('',#128,#622);
#624=SURFACE_CURVE('',#611,(#617,#623),.CURVE_3D.);
#625=EDGE_CURVE('',#41,#45,#624,.T.);
#626=CARTESIAN_POINT('',(4.,0.,3.));
#627=DIRECTION('',(0.,-0.,1.));
#628=DIRECTION('',(0.00000000000000006123233995736766,1.,0.));
#629=AXIS2_PLACEMENT_3D('',#626,#627,#628);
#630=CIRCLE('',#629,1.);
#631=CARTESIAN_POINT('',(0.,0.));
#632=DIRECTION('',(0.00000000000000006123233995736766,1.));
#633=AXIS2_PLACEMENT_2D('',#631,#632);
#634=CIRCLE('',#633,1.);
#635=DEFINITIONAL_REPRESENTATION('',(#634),#129);
#636=PCURVE('',#108,#635);
#637=CARTESIAN_POINT('',(0.,0.));
#638=DIRECTION('',(1.,0.));
#639=VECTOR('',#638,1.);
#640=LINE('',#637,#639);
#641=DEFINITIONAL_REPRESENTATION('',(#640),#129);
#642=PCURVE('',#118,#641);
#643=SURFACE_CURVE('',#630,(#636,#642),.CURVE_3D.);
#644=EDGE_CURVE('',#42,#43,#643,.T.);
#645=CARTESIAN_POINT('',(4.,0.,5.));
#646=DIRECTION('',(0.,-0.,1.));
#647=DIRECTION('',(0.00000000000000006123233995736766,1.,0.));
#648=AXIS2_PLACEMENT_3D('',#645,#646,#647);
#649=CIRCLE('',#648,1.);
#650=CARTESIAN_POINT('',(14.,8.));
#651=DIRECTION('',(0.00000000000000006123233995736766,1.));
#652=AXIS2_PLACEMENT_2D('',#650,#651);
#653=CIRCLE('',#652,1.);
#654=DEFINITIONAL_REPRESENTATION('',(#653),#129);
#655=PCURVE('',#58,#654);
#656=CARTESIAN_POINT('',(0.,2.));
#657=DIRECTION('',(1.,0.));
#658=VECTOR('',#657,1.);
#659=LINE('',#656,#658);
#660=DEFINITIONAL_REPRESENTATION('',(#659),#129);
#661=PCURVE('',#118,#660);
#662=SURFACE_CURVE('',#649,(#655,#661),.CURVE_3D.);
#663=EDGE_CURVE('',#46,#47,#662,.T.);
#664=CARTESIAN_POINT('',(4.,1.,3.));
#665=DIRECTION('',(0.,0.,1.));
#666=VECTOR('',#665,2.);
#667=LINE('',#664,#666);
#668=CARTESIAN_POINT('',(1.5707963267948966,0.));
#669=DIRECTION('',(0.,1.));
#670=VECTOR('',#669,2.);
#671=LINE('',#668,#670);
#672=DEFINITIONAL_REPRESENTATION('',(#671),#129);
#673=PCURVE('',#113,#672);
#674=CARTESIAN_POINT('',(0.,0.));
#675=DIRECTION('',(0.,1.));
#676=VECTOR('',#675,2.);
#677=LINE('',#674,#676);
#678=DEFINITIONAL_REPRESENTATION('',(#677),#129);
#679=PCURVE('',#118,#678);
#680=SURFACE_CURVE('',#667,(#673,#679),.CURVE_3D.);
#681=EDGE_CURVE('',#42,#46,#680,.T.);
#682=CARTESIAN_POINT('',(4.,0.,3.));
#683=DIRECTION('',(0.,0.,1.));
#684=DIRECTION('',(-1.,0.00000000000000012246467991473532,0.));
#685=AXIS2_PLACEMENT_3D('',#682,#683,#684);
#686=CIRCLE('',#685,1.);
#687=CARTESIAN_POINT('',(0.,0.));
#688=DIRECTION('',(-1.,0.00000000000000012246467991473532));
#689=AXIS2_PLACEMENT_2D('',#687,#688);
#690=CIRCLE('',#689,1.);
#691=DEFINITIONAL_REPRESENTATION('',(#690),#129);
#692=PCURVE('',#108,#691);
#693=CARTESIAN_POINT('',(0.,0.));
#694=DIRECTION('',(1.,0.));
#695=VECTOR('',#694,1.);
#696=LINE('',#693,#695);
#697=DEFINITIONAL_REPRESENTATION('',(#696),#129);
#698=PCURVE('',#123,#697);
#699=SURFACE_CURVE('',#686,(#692,#698),.CURVE_3D.);
#700=EDGE_CURVE('',#43,#44,#699,.T.);
#701=CARTESIAN_POINT('',(4.,0.,5.));
#702=DIRECTION('',(0.,0.,1.));
#703=DIRECTION('',(-1.,0.00000000000000012246467991473532,0.));
#704=AXIS2_PLACEMENT_3D('',#701,#702,#703);
#705=CIRCLE('',#704,1.);
#706=CARTESIAN_POINT('',(14.,8.));
#707=DIRECTION('',(-1.,0.00000000000000012246467991473532));
#708=AXIS2_PLACEMENT_2D('',#706,#707);
#709=CIRCLE('',#708,1.);
#710=DEFINITIONAL_REPRESENTATION('',(#709),#129);
#711=PCURVE('',#58,#710);
#712=CARTESIAN_POINT('',(0.,2.));
#713=DIRECTION('',(1.,0.));
#714=VECTOR('',#713,1.);
#715=LINE('',#712,#714);
#716=DEFINITIONAL_REPRESENTATION('',(#715),#129);
#717=PCURVE('',#123,#716);
#718=SURFACE_CURVE('',#705,(#711,#717),.CURVE_3D.);
#719=EDGE_CURVE('',#47,#48,#718,.T.);
#720=CARTESIAN_POINT('',(3.,0.00000000000000012246467991473532,3.));
#721=DIRECTION('',(0.,0.,1.));
#722=VECTOR('',#721,2.);
#723=LINE('',#720,#722);
#724=CARTESIAN_POINT('',(1.5707963267948966,0.));
#725=DIRECTION('',(0.,1.));
#726=VECTOR('',#725,2.);
#727=LINE('',#724,#726);
#728=DEFINITIONAL_REPRESENTATION('',(#727),#129);
#729=PCURVE('',#118,#728);
#730=CARTESIAN_POINT('',(0.,0.));
#731=DIRECTION('',(0.,1.));
#732=VECTOR('',#731,2.);
#733=LINE('',#730,#732);
#734=DEFINITIONAL_REPRESENTATION('',(#733),#129);
#735=PCURVE('',#123,#734);
#736=SURFACE_CURVE('',#723,(#729,#735),.CURVE_3D.);
#737=EDGE_CURVE('',#43,#47,#736,.T.);
#738=CARTESIAN_POINT('',(4.,0.,3.));
#739=DIRECTION('',(0.,0.,1.));
#740=DIRECTION('',(-0.00000000000000018369701987210297,-1.,0.));
#741=AXIS2_PLACEMENT_3D('',#738,#739,#740);
#742=CIRCLE('',#741,1.);
#743=CARTESIAN_POINT('',(0.,0.));
#744=DIRECTION('',(-0.00000000000000018369701987210297,-1.));
#745=AXIS2_PLACEMENT_2D('',#743,#744);
#746=CIRCLE('',#745,1.);
#747=DEFINITIONAL_REPRESENTATION('',(#746),#129);
#748=PCURVE('',#108,#747);
#749=CARTESIAN_POINT('',(0.,0.));
#750=DIRECTION('',(1.,0.));
#751=VECTOR('',#750,1.);
#752=LINE('',#749,#751);
#753=DEFINITIONAL_REPRESENTATION('',(#752),#129);
#754=PCURVE('',#128,#753);
#755=SURFACE_CURVE('',#742,(#748,#754),.CURVE_3D.);
#756=EDGE_CURVE('',#44,#41,#755,.T.);
#757=CARTESIAN_POINT('',(4.,0.,5.));
#758=DIRECTION('',(0.,0.,1.));
#759=DIRECTION('',(-0.00000000000000018369701987210297,-1.,0.));
#760=AXIS2_PLACEMENT_3D('',#757,#758,#759);
#761=CIRCLE('',#760,1.);
#762=CARTESIAN_POINT('',(14.,8.));
#763=DIRECTION('',(0.00000000000000006123233995736766,-1.));
#764=AXIS2_PLACEMENT_2D('',#762,#763);
#765=CIRCLE('',#764,1.);
#766=DEFINITIONAL_REPRESENTATION('',(#765),#129);
#767=PCURVE('',#58,#766);
#768=CARTESIAN_POINT('',(0.,2.));
#769=DIRECTION('',(1.,0.));
#770=VECTOR('',#769,1.);
#771=LINE('',#768,#770);
#772=DEFINITIONAL_REPRESENTATION('',(#771),#129);
#773=PCURVE('',#128,#772);
#774=SURFACE_CURVE('',#761,(#767,#773),.CURVE_3D.);
#775=EDGE_CURVE('',#48,#45,#774,.T.);
#776=CARTESIAN_POINT('',(4.,-1.,3.));
#777=DIRECTION('',(0.,0.,1.));
#778=VECTOR('',#777,2.);
#779=LINE('',#776,#778);
#780=CARTESIAN_POINT('',(1.5707963267948966,0.));
#781=DIRECTION('',(0.,1.));
#782=VECTOR('',#781,2.);
#783=LINE('',#780,#782);
#784=DEFINITIONAL_REPRESENTATION('',(#783),#129);
#785=PCURVE('',#123,#784);
#786=CARTESIAN_POINT('',(0.,0.));
#787=DIRECTION('',(0.,1.));
#788=VECTOR('',#787,2.);
#789=LINE('',#786,#788);
#790=DEFINITIONAL_REPRESENTATION('',(#789),#129);
#791=PCURVE('',#128,#790);
#792=SURFACE_CURVE('',#779,(#785,#791),.CURVE_3D.);
#793=EDGE_CURVE('',#44,#48,#792,.T.);
#794=ORIENTED_EDGE('',*,*,#147,.T.);
#795=ORIENTED_EDGE('',*,*,#165,.T.);
#796=ORIENTED_EDGE('',*,*,#183,.T.);
#797=ORIENTED_EDGE('',*,*,#201,.T.);
#798=EDGE_LOOP('',(#794,#795,#796,#797));
#799=FACE_OUTER_BOUND('',#798,.T.);
#800=ADVANCED_FACE('',(#799),#53,.F.);
#801=ORIENTED_EDGE('',*,*,#219,.T.);
#802=ORIENTED_EDGE('',*,*,#237,.T.);
#803=ORIENTED_EDGE('',*,*,#255,.T.);
#804=ORIENTED_EDGE('',*,*,#273,.T.);
#805=EDGE_LOOP('',(#801,#802,#803,#804));
#806=FACE_OUTER_BOUND('',#805,.T.);
#807=ORIENTED_EDGE('',*,*,#551,.F.);
#808=ORIENTED_EDGE('',*,*,#495,.F.);
#809=ORIENTED_EDGE('',*,*,#439,.F.);
#810=ORIENTED_EDGE('',*,*,#383,.F.);
#811=EDGE_LOOP('',(#807,#808,#809,#810));
#812=FACE_BOUND('',#811,.T.);
#813=ORIENTED_EDGE('',*,*,#775,.F.);
#814=ORIENTED_EDGE('',*,*,#719,.F.);
#815=ORIENTED_EDGE('',*,*,#663,.F.);
#816=ORIENTED_EDGE('',*,*,#607,.F.);
#817=EDGE_LOOP('',(#813,#814,#815,#816));
#818=FACE_BOUND('',#817,.T.);
#819=ADVANCED_FACE('',(#806,#812,#818),#58,.T.);
#820=ORIENTED_EDGE('',*,*,#147,.T.);
#821=ORIENTED_EDGE('',*,*,#309,.T.);
#822=ORIENTED_EDGE('',*,*,#219,.F.);
#823=ORIENTED_EDGE('',*,*,#291,.F.);
#824=EDGE_LOOP('',(#820,#821,#822,#823));
#825=FACE_OUTER_BOUND('',#824,.T.);
#826=ADVANCED_FACE('',(#825),#63,.T.);
#827=ORIENTED_EDGE('',*,*,#165,.T.);
#828=ORIENTED_EDGE('',*,*,#327,.T.);
#829=ORIENTED_EDGE('',*,*,#237,.F.);
#830=ORIENTED_EDGE('',*,*,#309,.F.);
#831=EDGE_LOOP('',(#827,#828,#829,#830));
#832=FACE_OUTER_BOUND('',#831,.T.);
#833=ADVANCED_FACE('',(#832),#68,.T.);
#834=ORIENTED_EDGE('',*,*,#183,.T.);
#835=ORIENTED_EDGE('',*,*,#345,.T.);
#836=ORIENTED_EDGE('',*,*,#255,.F.);
#837=ORIENTED_EDGE('',*,*,#327,.F.);
#838=EDGE_LOOP('',(#834,#835,#836,#837));
#839=FACE_OUTER_BOUND('',#838,.T.);
#840=ADVANCED_FACE('',(#839),#73,.T.);
#841=ORIENTED_EDGE('',*,*,#201,.T.);
#842=ORIENTED_EDGE('',*,*,#291,.T.);
#843=ORIENTED_EDGE('',*,*,#273,.F.);
#844=ORIENTED_EDGE('',*,*,#345,.F.);
#845=EDGE_LOOP('',(#841,#842,#843,#844));
#846=FACE_OUTER_BOUND('',#845,.T.);
#847=ADVANCED_FACE('',(#846),#78,.T.);
#848=ORIENTED_EDGE('',*,*,#364,.T.);
#849=ORIENTED_EDGE('',*,*,#420,.T.);
#850=ORIENTED_EDGE('',*,*,#476,.T.);
#851=ORIENTED_EDGE('',*,*,#532,.T.);
#852=EDGE_LOOP('',(#848,#849,#850,#851));
#853=FACE_OUTER_BOUND('',#852,.T.);
#854=ADVANCED_FACE('',(#853),#83,.T.);
#855=ORIENTED_EDGE('',*,*,#364,.T.);
#856=ORIENTED_EDGE('',*,*,#457,.T.);
#857=ORIENTED_EDGE('',*,*,#383,.F.);
#858=ORIENTED_EDGE('',*,*,#401,.F.);
#859=EDGE_LOOP('',(#855,#856,#857,#858));
#860=FACE_OUTER_BOUND('',#859,.T.);
#861=ADVANCED_FACE('',(#860),#88,.F.);
#862=ORIENTED_EDGE('',*,*,#420,.T.);
#863=ORIENTED_EDGE('',*,*,#513,.T.);
#864=ORIENTED_EDGE('',*,*,#439,.F.);
#865=ORIENTED_EDGE('',*,*,#457,.F.);
#866=EDGE_LOOP('',(#862,#863,#864,#865));
#867=FACE_OUTER_BOUND('',#866,.T.);
#868=ADVANCED_FACE('',(#867),#93,.F.);
#869=ORIENTED_EDGE('',*,*,#476,.T.);
#870=ORIENTED_EDGE('',*,*,#569,.T.);
#871=ORIENTED_EDGE('',*,*,#495,.F.);
#872=ORIENTED_EDGE('',*,*,#513,.F.);
#873=EDGE_LOOP('',(#869,#870,#871,#872));
#874=FACE_OUTER_BOUND('',#873,.T.);
#875=ADVANCED_FACE('',(#874),#98,.F.);
#876=ORIENTED_EDGE('',*,*,#532,.T.);
#877=ORIENTED_EDGE('',*,*,#401,.T.);
#878=ORIENTED_EDGE('',*,*,#551,.F.);
#879=ORIENTED_EDGE('',*,*,#569,.F.);
#880=EDGE_LOOP('',(#876,#877,#878,#879));
#881=FACE_OUTER_BOUND('',#880,.T.);
#882=ADVANCED_FACE('',(#881),#103,.F.);
#883=ORIENTED_EDGE('',*,*,#588,.T.);
#884=ORIENTED_EDGE('',*,*,#644,.T.);
#885=ORIENTED_EDGE('',*,*,#700,.T.);
#886=ORIENTED_EDGE('',*,*,#756,.T.);
#887=EDGE_LOOP('',(#883,#884,#885,#886));
#888=FACE_OUTER_BOUND('',#887,.T.);
#889=ADVANCED_FACE('',(#888),#108,.T.);
#890=ORIENTED_EDGE('',*,*,#588,.T.);
#891=ORIENTED_EDGE('',*,*,#681,.T.);
#892=ORIENTED_EDGE('',*,*,#607,.F.);
#893=ORIENTED_EDGE('',*,*,#625,.F.);
#894=EDGE_LOOP('',(#890,#891,#892,#893));
#895=FACE_OUTER_BOUND('',#894,.T.);
#896=ADVANCED_FACE('',(#895),#113,.F.);
#897=ORIENTED_EDGE('',*,*,#644,.T.);
#898=ORIENTED_EDGE('',*,*,#737,.T.);
#899=ORIENTED_EDGE('',*,*,#663,.F.);
#900=ORIENTED_EDGE('',*,*,#681,.F.);
#901=EDGE_LOOP('',(#897,#898,#899,#900));
#902=FACE_OUTER_BOUND('',#901,.T.);
#903=ADVANCED_FACE('',(#902),#118,.F.);
#904=ORIENTED_EDGE('',*,*,#700,.T.);
#905=ORIENTED_EDGE('',*,*,#793,.T.);
#906=ORIENTED_EDGE('',*,*,#719,.F.);
#907=ORIENTED_EDGE('',*,*,#737,.F.);
#908=EDGE_LOOP('',(#904,#905,#906,#907));
#909=FACE_OUTER_BOUND('',#908,.T.);
#910=ADVANCED_FACE('',(#909),#123,.F.);
#911=ORIENTED_EDGE('',*,*,#756,.T.);
#912=ORIENTED_EDGE('',*,*,#625,.T.);
#913=ORIENTED_EDGE('',*,*,#775,.F.);
#914=ORIENTED_EDGE('',*,*,#793,.F.);
#915=EDGE_LOOP('',(#911,#912,#913,#914));
#916=FACE_OUTER_BOUND('',#915,.T.);
#917=ADVANCED_FACE('',(#916),#128,.F.);
#918=CLOSED_SHELL('',(#800,#819,#826,#833,#840,#847,#854,#861,#868,#875,#882,#889,#896,#903,#910,#917));
#919=MANIFOLD_SOLID_BREP('Hagane part',#918);
#920=(LENGTH_UNIT() NAMED_UNIT(*) SI_UNIT(.MILLI.,.METRE.));
#921=(NAMED_UNIT(*) PLANE_ANGLE_UNIT() SI_UNIT($,.RADIAN.));
#922=(NAMED_UNIT(*) SI_UNIT($,.STERADIAN.) SOLID_ANGLE_UNIT());
#923=UNCERTAINTY_MEASURE_WITH_UNIT(LENGTH_MEASURE(0.000001),#920,'distance_accuracy_value','');
#924=(GEOMETRIC_REPRESENTATION_CONTEXT(3) GLOBAL_UNCERTAINTY_ASSIGNED_CONTEXT((#923)) GLOBAL_UNIT_ASSIGNED_CONTEXT((#920,#921,#922)) REPRESENTATION_CONTEXT('',''));
#925=ADVANCED_BREP_SHAPE_REPRESENTATION('',(#919),#924);
#926=APPLICATION_CONTEXT('automotive_design');
#927=APPLICATION_PROTOCOL_DEFINITION('international standard','automotive_design',2000,#926);
#928=PRODUCT_CONTEXT('',#926,'mechanical');
#929=PRODUCT('hagane','Hagane part','',(#928));
#930=PRODUCT_DEFINITION_FORMATION('','',#929);
#931=PRODUCT_DEFINITION_CONTEXT('part definition',#926,'design');
#932=PRODUCT_DEFINITION('design','',#930,#931);
#933=PRODUCT_DEFINITION_SHAPE('','',#932);
#934=SHAPE_DEFINITION_REPRESENTATION(#933,#925);
ENDSEC;
END-ISO-10303-21;
