ISO-10303-21;
HEADER;
FILE_DESCRIPTION(('Hagane exact B-rep'),'2;1');
FILE_NAME('hagane.step','',('Hagane'),(''),'Hagane','Hagane','');
FILE_SCHEMA(('AUTOMOTIVE_DESIGN'));
ENDSEC;
DATA;
#1=CARTESIAN_POINT('',(1000000000008.,-1000000000000.,999999999988.));
#2=CARTESIAN_POINT('',(1000000000008.,-1000000000000.,1000000000012.));
#3=VERTEX_POINT('',#1);
#4=VERTEX_POINT('',#2);
#5=CARTESIAN_POINT('',(1000000000000.,-1000000000000.,999999999988.));
#6=DIRECTION('',(0.,0.,1.));
#7=DIRECTION('',(1.,0.,0.));
#8=AXIS2_PLACEMENT_3D('',#5,#6,#7);
#9=PLANE('',#8);
#10=CARTESIAN_POINT('',(1000000000000.,-1000000000000.,1000000000012.));
#11=DIRECTION('',(0.,0.,1.));
#12=DIRECTION('',(1.,0.,0.));
#13=AXIS2_PLACEMENT_3D('',#10,#11,#12);
#14=PLANE('',#13);
#15=CARTESIAN_POINT('',(1000000000000.,-1000000000000.,999999999988.));
#16=DIRECTION('',(0.,0.,1.));
#17=DIRECTION('',(1.,0.,0.));
#18=AXIS2_PLACEMENT_3D('',#15,#16,#17);
#19=CYLINDRICAL_SURFACE('',#18,8.);
#20=(GEOMETRIC_REPRESENTATION_CONTEXT(2) REPRESENTATION_CONTEXT('',''));
#21=CARTESIAN_POINT('',(1000000000000.,-1000000000000.,999999999988.));
#22=DIRECTION('',(0.,0.,1.));
#23=DIRECTION('',(1.,0.,0.));
#24=AXIS2_PLACEMENT_3D('',#21,#22,#23);
#25=CIRCLE('',#24,8.);
#26=EDGE_CURVE('',#3,#3,#25,.T.);
#27=CARTESIAN_POINT('',(1000000000000.,-1000000000000.,1000000000012.));
#28=DIRECTION('',(0.,0.,1.));
#29=DIRECTION('',(1.,0.,0.));
#30=AXIS2_PLACEMENT_3D('',#27,#28,#29);
#31=CIRCLE('',#30,8.);
#32=EDGE_CURVE('',#4,#4,#31,.T.);
#33=CARTESIAN_POINT('',(1000000000008.,-1000000000000.,999999999988.));
#34=DIRECTION('',(0.,0.,1.));
#35=VECTOR('',#34,24.);
#36=LINE('',#33,#35);
#37=CARTESIAN_POINT('',(6.283185307179586,0.));
#38=DIRECTION('',(0.,1.));
#39=VECTOR('',#38,24.);
#40=LINE('',#37,#39);
#41=DEFINITIONAL_REPRESENTATION('',(#40),#20);
#42=PCURVE('',#19,#41);
#43=CARTESIAN_POINT('',(0.,0.));
#44=DIRECTION('',(0.,1.));
#45=VECTOR('',#44,24.);
#46=LINE('',#43,#45);
#47=DEFINITIONAL_REPRESENTATION('',(#46),#20);
#48=PCURVE('',#19,#47);
#49=SEAM_CURVE('',#36,(#42,#48),.CURVE_3D.);
#50=EDGE_CURVE('',#3,#4,#49,.T.);
#51=ORIENTED_EDGE('',*,*,#26,.T.);
#52=EDGE_LOOP('',(#51));
#53=FACE_OUTER_BOUND('',#52,.T.);
#54=ADVANCED_FACE('',(#53),#9,.F.);
#55=ORIENTED_EDGE('',*,*,#32,.T.);
#56=EDGE_LOOP('',(#55));
#57=FACE_OUTER_BOUND('',#56,.T.);
#58=ADVANCED_FACE('',(#57),#14,.T.);
#59=ORIENTED_EDGE('',*,*,#26,.T.);
#60=ORIENTED_EDGE('',*,*,#50,.T.);
#61=ORIENTED_EDGE('',*,*,#32,.F.);
#62=ORIENTED_EDGE('',*,*,#50,.F.);
#63=EDGE_LOOP('',(#59,#60,#61,#62));
#64=FACE_OUTER_BOUND('',#63,.T.);
#65=ADVANCED_FACE('',(#64),#19,.T.);
#66=CLOSED_SHELL('',(#54,#58,#65));
#67=MANIFOLD_SOLID_BREP('Hagane part',#66);
#68=(LENGTH_UNIT() NAMED_UNIT(*) SI_UNIT(.MILLI.,.METRE.));
#69=(NAMED_UNIT(*) PLANE_ANGLE_UNIT() SI_UNIT($,.RADIAN.));
#70=(NAMED_UNIT(*) SI_UNIT($,.STERADIAN.) SOLID_ANGLE_UNIT());
#71=UNCERTAINTY_MEASURE_WITH_UNIT(LENGTH_MEASURE(0.00000001),#68,'distance_accuracy_value','');
#72=(GEOMETRIC_REPRESENTATION_CONTEXT(3) GLOBAL_UNCERTAINTY_ASSIGNED_CONTEXT((#71)) GLOBAL_UNIT_ASSIGNED_CONTEXT((#68,#69,#70)) REPRESENTATION_CONTEXT('',''));
#73=ADVANCED_BREP_SHAPE_REPRESENTATION('',(#67),#72);
#74=APPLICATION_CONTEXT('automotive_design');
#75=APPLICATION_PROTOCOL_DEFINITION('international standard','automotive_design',2000,#74);
#76=PRODUCT_CONTEXT('',#74,'mechanical');
#77=PRODUCT('hagane','Hagane part','',(#76));
#78=PRODUCT_DEFINITION_FORMATION('','',#77);
#79=PRODUCT_DEFINITION_CONTEXT('part definition',#74,'design');
#80=PRODUCT_DEFINITION('design','',#78,#79);
#81=PRODUCT_DEFINITION_SHAPE('','',#80);
#82=SHAPE_DEFINITION_REPRESENTATION(#81,#73);
ENDSEC;
END-ISO-10303-21;
