ISO-10303-21;
HEADER;
FILE_DESCRIPTION(('Hagane exact B-rep'),'2;1');
FILE_NAME('hagane.step','',('Hagane'),(''),'Hagane','Hagane','');
FILE_SCHEMA(('AUTOMOTIVE_DESIGN'));
ENDSEC;
DATA;
#1=CARTESIAN_POINT('',(21.516235813170603,-1.742352161350622,-1.3438438301564517));
#2=CARTESIAN_POINT('',(30.989990969341797,-3.4557721473796454,20.640517775139163));
#3=CARTESIAN_POINT('',(18.389679117542503,-3.9428210841680555,-0.16801231640212855));
#4=CARTESIAN_POINT('',(27.863434273713697,-5.656241070197078,21.816349288893484));
#5=VERTEX_POINT('',#1);
#6=VERTEX_POINT('',#2);
#7=VERTEX_POINT('',#3);
#8=VERTEX_POINT('',#4);
#9=CARTESIAN_POINT('',(15.263122421914403,-6.143290006985488,1.0078191973521928));
#10=DIRECTION('',(0.3947397981737997,-0.07139249941787598,0.916015066887317));
#11=DIRECTION('',(0.781639173907025,0.5501172307043583,-0.2939578784385805));
#12=AXIS2_PLACEMENT_3D('',#9,#10,#11);
#13=PLANE('',#12);
#14=CARTESIAN_POINT('',(24.736877578085597,-7.856709993014512,22.99218080264781));
#15=DIRECTION('',(0.3947397981737997,-0.07139249941787598,0.916015066887317));
#16=DIRECTION('',(0.781639173907025,0.5501172307043583,-0.2939578784385805));
#17=AXIS2_PLACEMENT_3D('',#14,#15,#16);
#18=PLANE('',#17);
#19=CARTESIAN_POINT('',(15.263122421914403,-6.143290006985488,1.0078191973521928));
#20=DIRECTION('',(0.39473979817379984,-0.07139249941787601,0.9160150668873173));
#21=DIRECTION('',(0.781639173907025,0.5501172307043583,-0.2939578784385805));
#22=AXIS2_PLACEMENT_3D('',#19,#20,#21);
#23=CYLINDRICAL_SURFACE('',#22,8.);
#24=CARTESIAN_POINT('',(15.263122421914403,-6.143290006985488,1.0078191973521928));
#25=DIRECTION('',(0.39473979817379984,-0.07139249941787601,0.9160150668873173));
#26=DIRECTION('',(0.781639173907025,0.5501172307043583,-0.2939578784385805));
#27=AXIS2_PLACEMENT_3D('',#24,#25,#26);
#28=CYLINDRICAL_SURFACE('',#27,4.);
#29=(GEOMETRIC_REPRESENTATION_CONTEXT(2) REPRESENTATION_CONTEXT('',''));
#30=CARTESIAN_POINT('',(15.263122421914403,-6.143290006985488,1.0078191973521928));
#31=DIRECTION('',(0.39473979817379984,-0.07139249941787601,0.9160150668873173));
#32=DIRECTION('',(0.781639173907025,0.5501172307043583,-0.2939578784385805));
#33=AXIS2_PLACEMENT_3D('',#30,#31,#32);
#34=CIRCLE('',#33,8.);
#35=EDGE_CURVE('',#5,#5,#34,.T.);
#36=CARTESIAN_POINT('',(24.736877578085597,-7.856709993014512,22.99218080264781));
#37=DIRECTION('',(0.39473979817379984,-0.07139249941787601,0.9160150668873173));
#38=DIRECTION('',(0.781639173907025,0.5501172307043583,-0.2939578784385805));
#39=AXIS2_PLACEMENT_3D('',#36,#37,#38);
#40=CIRCLE('',#39,8.);
#41=EDGE_CURVE('',#6,#6,#40,.T.);
#42=CARTESIAN_POINT('',(21.516235813170603,-1.742352161350622,-1.3438438301564517));
#43=DIRECTION('',(0.3947397981737997,-0.07139249941787597,0.9160150668873173));
#44=VECTOR('',#43,24.);
#45=LINE('',#42,#44);
#46=CARTESIAN_POINT('',(6.283185307179586,0.));
#47=DIRECTION('',(0.,1.));
#48=VECTOR('',#47,24.);
#49=LINE('',#46,#48);
#50=DEFINITIONAL_REPRESENTATION('',(#49),#29);
#51=PCURVE('',#23,#50);
#52=CARTESIAN_POINT('',(0.,0.));
#53=DIRECTION('',(0.,1.));
#54=VECTOR('',#53,24.);
#55=LINE('',#52,#54);
#56=DEFINITIONAL_REPRESENTATION('',(#55),#29);
#57=PCURVE('',#23,#56);
#58=SEAM_CURVE('',#45,(#51,#57),.CURVE_3D.);
#59=EDGE_CURVE('',#5,#6,#58,.T.);
#60=CARTESIAN_POINT('',(15.263122421914403,-6.143290006985488,1.0078191973521928));
#61=DIRECTION('',(0.39473979817379984,-0.07139249941787601,0.9160150668873173));
#62=DIRECTION('',(0.781639173907025,0.5501172307043583,-0.2939578784385805));
#63=AXIS2_PLACEMENT_3D('',#60,#61,#62);
#64=CIRCLE('',#63,4.);
#65=EDGE_CURVE('',#7,#7,#64,.T.);
#66=CARTESIAN_POINT('',(24.736877578085597,-7.856709993014512,22.99218080264781));
#67=DIRECTION('',(0.39473979817379984,-0.07139249941787601,0.9160150668873173));
#68=DIRECTION('',(0.781639173907025,0.5501172307043583,-0.2939578784385805));
#69=AXIS2_PLACEMENT_3D('',#66,#67,#68);
#70=CIRCLE('',#69,4.);
#71=EDGE_CURVE('',#8,#8,#70,.T.);
#72=CARTESIAN_POINT('',(18.389679117542503,-3.9428210841680555,-0.16801231640212855));
#73=DIRECTION('',(0.3947397981737998,-0.07139249941787594,0.9160150668873173));
#74=VECTOR('',#73,23.999999999999996);
#75=LINE('',#72,#74);
#76=CARTESIAN_POINT('',(6.283185307179586,0.));
#77=DIRECTION('',(0.,1.));
#78=VECTOR('',#77,24.);
#79=LINE('',#76,#78);
#80=DEFINITIONAL_REPRESENTATION('',(#79),#29);
#81=PCURVE('',#28,#80);
#82=CARTESIAN_POINT('',(0.,0.));
#83=DIRECTION('',(0.,1.));
#84=VECTOR('',#83,24.);
#85=LINE('',#82,#84);
#86=DEFINITIONAL_REPRESENTATION('',(#85),#29);
#87=PCURVE('',#28,#86);
#88=SEAM_CURVE('',#75,(#81,#87),.CURVE_3D.);
#89=EDGE_CURVE('',#7,#8,#88,.T.);
#90=ORIENTED_EDGE('',*,*,#35,.T.);
#91=EDGE_LOOP('',(#90));
#92=FACE_OUTER_BOUND('',#91,.T.);
#93=ORIENTED_EDGE('',*,*,#65,.F.);
#94=EDGE_LOOP('',(#93));
#95=FACE_BOUND('',#94,.T.);
#96=ADVANCED_FACE('',(#92,#95),#13,.F.);
#97=ORIENTED_EDGE('',*,*,#41,.T.);
#98=EDGE_LOOP('',(#97));
#99=FACE_OUTER_BOUND('',#98,.T.);
#100=ORIENTED_EDGE('',*,*,#71,.F.);
#101=EDGE_LOOP('',(#100));
#102=FACE_BOUND('',#101,.T.);
#103=ADVANCED_FACE('',(#99,#102),#18,.T.);
#104=ORIENTED_EDGE('',*,*,#35,.T.);
#105=ORIENTED_EDGE('',*,*,#59,.T.);
#106=ORIENTED_EDGE('',*,*,#41,.F.);
#107=ORIENTED_EDGE('',*,*,#59,.F.);
#108=EDGE_LOOP('',(#104,#105,#106,#107));
#109=FACE_OUTER_BOUND('',#108,.T.);
#110=ADVANCED_FACE('',(#109),#23,.T.);
#111=ORIENTED_EDGE('',*,*,#65,.T.);
#112=ORIENTED_EDGE('',*,*,#89,.T.);
#113=ORIENTED_EDGE('',*,*,#71,.F.);
#114=ORIENTED_EDGE('',*,*,#89,.F.);
#115=EDGE_LOOP('',(#111,#112,#113,#114));
#116=FACE_OUTER_BOUND('',#115,.T.);
#117=ADVANCED_FACE('',(#116),#28,.F.);
#118=CLOSED_SHELL('',(#96,#103,#110,#117));
#119=MANIFOLD_SOLID_BREP('Hagane part',#118);
#120=(LENGTH_UNIT() NAMED_UNIT(*) SI_UNIT(.MILLI.,.METRE.));
#121=(NAMED_UNIT(*) PLANE_ANGLE_UNIT() SI_UNIT($,.RADIAN.));
#122=(NAMED_UNIT(*) SI_UNIT($,.STERADIAN.) SOLID_ANGLE_UNIT());
#123=UNCERTAINTY_MEASURE_WITH_UNIT(LENGTH_MEASURE(0.00000001),#120,'distance_accuracy_value','');
#124=(GEOMETRIC_REPRESENTATION_CONTEXT(3) GLOBAL_UNCERTAINTY_ASSIGNED_CONTEXT((#123)) GLOBAL_UNIT_ASSIGNED_CONTEXT((#120,#121,#122)) REPRESENTATION_CONTEXT('',''));
#125=ADVANCED_BREP_SHAPE_REPRESENTATION('',(#119),#124);
#126=APPLICATION_CONTEXT('automotive_design');
#127=APPLICATION_PROTOCOL_DEFINITION('international standard','automotive_design',2000,#126);
#128=PRODUCT_CONTEXT('',#126,'mechanical');
#129=PRODUCT('hagane','Hagane part','',(#128));
#130=PRODUCT_DEFINITION_FORMATION('','',#129);
#131=PRODUCT_DEFINITION_CONTEXT('part definition',#126,'design');
#132=PRODUCT_DEFINITION('design','',#130,#131);
#133=PRODUCT_DEFINITION_SHAPE('','',#132);
#134=SHAPE_DEFINITION_REPRESENTATION(#133,#125);
ENDSEC;
END-ISO-10303-21;
