ISO-10303-21;
HEADER;
FILE_DESCRIPTION(('Hagane exact B-rep'),'2;1');
FILE_NAME('hagane.step','',('Hagane'),(''),'Hagane','Hagane','');
FILE_SCHEMA(('AUTOMOTIVE_DESIGN'));
ENDSEC;
DATA;
#1=CARTESIAN_POINT('',(-40.,-20.,-12.));
#2=CARTESIAN_POINT('',(-30.,-30.,-12.));
#3=CARTESIAN_POINT('',(30.,-30.,-12.));
#4=CARTESIAN_POINT('',(40.,-20.,-12.));
#5=CARTESIAN_POINT('',(40.,20.,-12.));
#6=CARTESIAN_POINT('',(30.,30.,-12.));
#7=CARTESIAN_POINT('',(-30.,30.,-12.));
#8=CARTESIAN_POINT('',(-40.,20.,-12.));
#9=CARTESIAN_POINT('',(-34.,8.,-12.));
#10=CARTESIAN_POINT('',(-22.,8.,-12.));
#11=CARTESIAN_POINT('',(-22.,-8.,-12.));
#12=CARTESIAN_POINT('',(-34.,-8.,-12.));
#13=CARTESIAN_POINT('',(-22.,-32.,12.));
#14=CARTESIAN_POINT('',(-12.,-42.,12.));
#15=CARTESIAN_POINT('',(48.,-42.,12.));
#16=CARTESIAN_POINT('',(58.,-32.,12.));
#17=CARTESIAN_POINT('',(58.,8.,12.));
#18=CARTESIAN_POINT('',(48.,18.,12.));
#19=CARTESIAN_POINT('',(-12.,18.,12.));
#20=CARTESIAN_POINT('',(-22.,8.,12.));
#21=CARTESIAN_POINT('',(-16.,-4.,12.));
#22=CARTESIAN_POINT('',(-4.,-4.,12.));
#23=CARTESIAN_POINT('',(-4.,-20.,12.));
#24=CARTESIAN_POINT('',(-16.,-20.,12.));
#25=VERTEX_POINT('',#1);
#26=VERTEX_POINT('',#2);
#27=VERTEX_POINT('',#3);
#28=VERTEX_POINT('',#4);
#29=VERTEX_POINT('',#5);
#30=VERTEX_POINT('',#6);
#31=VERTEX_POINT('',#7);
#32=VERTEX_POINT('',#8);
#33=VERTEX_POINT('',#9);
#34=VERTEX_POINT('',#10);
#35=VERTEX_POINT('',#11);
#36=VERTEX_POINT('',#12);
#37=VERTEX_POINT('',#13);
#38=VERTEX_POINT('',#14);
#39=VERTEX_POINT('',#15);
#40=VERTEX_POINT('',#16);
#41=VERTEX_POINT('',#17);
#42=VERTEX_POINT('',#18);
#43=VERTEX_POINT('',#19);
#44=VERTEX_POINT('',#20);
#45=VERTEX_POINT('',#21);
#46=VERTEX_POINT('',#22);
#47=VERTEX_POINT('',#23);
#48=VERTEX_POINT('',#24);
#49=CARTESIAN_POINT('',(0.,0.,-12.));
#50=DIRECTION('',(0.,0.,1.));
#51=DIRECTION('',(1.,0.,0.));
#52=AXIS2_PLACEMENT_3D('',#49,#50,#51);
#53=PLANE('',#52);
#54=CARTESIAN_POINT('',(18.,-12.,12.));
#55=DIRECTION('',(0.,0.,1.));
#56=DIRECTION('',(1.,0.,0.));
#57=AXIS2_PLACEMENT_3D('',#54,#55,#56);
#58=PLANE('',#57);
#59=CARTESIAN_POINT('',(-40.,-20.,-12.));
#60=DIRECTION('',(-0.6963106238227912,-0.6963106238227912,0.1740776559556978));
#61=DIRECTION('',(0.7071067811865475,-0.7071067811865475,0.));
#62=AXIS2_PLACEMENT_3D('',#59,#60,#61);
#63=PLANE('',#62);
#64=CARTESIAN_POINT('',(-30.,-30.,-12.));
#65=DIRECTION('',(0.,-0.8944271909999159,-0.4472135954999579));
#66=DIRECTION('',(1.,0.,0.));
#67=AXIS2_PLACEMENT_3D('',#64,#65,#66);
#68=PLANE('',#67);
#69=CARTESIAN_POINT('',(30.,-30.,-12.));
#70=DIRECTION('',(0.5298129428260175,-0.5298129428260175,-0.6622661785325218));
#71=DIRECTION('',(0.7071067811865475,0.7071067811865475,0.));
#72=AXIS2_PLACEMENT_3D('',#69,#70,#71);
#73=PLANE('',#72);
#74=CARTESIAN_POINT('',(40.,-20.,-12.));
#75=DIRECTION('',(0.8,0.,-0.6));
#76=DIRECTION('',(0.,1.,0.));
#77=AXIS2_PLACEMENT_3D('',#74,#75,#76);
#78=PLANE('',#77);
#79=CARTESIAN_POINT('',(40.,20.,-12.));
#80=DIRECTION('',(0.6963106238227912,0.6963106238227912,-0.1740776559556978));
#81=DIRECTION('',(-0.7071067811865475,0.7071067811865475,0.));
#82=AXIS2_PLACEMENT_3D('',#79,#80,#81);
#83=PLANE('',#82);
#84=CARTESIAN_POINT('',(30.,30.,-12.));
#85=DIRECTION('',(0.,0.8944271909999159,0.4472135954999579));
#86=DIRECTION('',(-1.,0.,0.));
#87=AXIS2_PLACEMENT_3D('',#84,#85,#86);
#88=PLANE('',#87);
#89=CARTESIAN_POINT('',(-30.,30.,-12.));
#90=DIRECTION('',(-0.5298129428260175,0.5298129428260175,0.6622661785325218));
#91=DIRECTION('',(-0.7071067811865475,-0.7071067811865475,0.));
#92=AXIS2_PLACEMENT_3D('',#89,#90,#91);
#93=PLANE('',#92);
#94=CARTESIAN_POINT('',(-40.,20.,-12.));
#95=DIRECTION('',(-0.8,0.,0.6));
#96=DIRECTION('',(0.,-1.,0.));
#97=AXIS2_PLACEMENT_3D('',#94,#95,#96);
#98=PLANE('',#97);
#99=CARTESIAN_POINT('',(-34.,8.,-12.));
#100=DIRECTION('',(0.,-0.8944271909999159,-0.4472135954999579));
#101=DIRECTION('',(1.,0.,0.));
#102=AXIS2_PLACEMENT_3D('',#99,#100,#101);
#103=PLANE('',#102);
#104=CARTESIAN_POINT('',(-22.,8.,-12.));
#105=DIRECTION('',(-0.8,0.,0.6));
#106=DIRECTION('',(0.,-1.,0.));
#107=AXIS2_PLACEMENT_3D('',#104,#105,#106);
#108=PLANE('',#107);
#109=CARTESIAN_POINT('',(-22.,-8.,-12.));
#110=DIRECTION('',(0.,0.8944271909999159,0.4472135954999579));
#111=DIRECTION('',(-1.,0.,0.));
#112=AXIS2_PLACEMENT_3D('',#109,#110,#111);
#113=PLANE('',#112);
#114=CARTESIAN_POINT('',(-34.,-8.,-12.));
#115=DIRECTION('',(0.8,0.,-0.6));
#116=DIRECTION('',(0.,1.,0.));
#117=AXIS2_PLACEMENT_3D('',#114,#115,#116);
#118=PLANE('',#117);
#119=CARTESIAN_POINT('',(-40.,-20.,-12.));
#120=DIRECTION('',(0.7071067811865475,-0.7071067811865475,0.));
#121=VECTOR('',#120,14.142135623730951);
#122=LINE('',#119,#121);
#123=EDGE_CURVE('',#25,#26,#122,.T.);
#124=CARTESIAN_POINT('',(-22.,-32.,12.));
#125=DIRECTION('',(0.7071067811865475,-0.7071067811865475,0.));
#126=VECTOR('',#125,14.142135623730951);
#127=LINE('',#124,#126);
#128=EDGE_CURVE('',#37,#38,#127,.T.);
#129=CARTESIAN_POINT('',(-40.,-20.,-12.));
#130=DIRECTION('',(0.5570860145311555,-0.37139067635410367,0.7427813527082073));
#131=VECTOR('',#130,32.31098884280703);
#132=LINE('',#129,#131);
#133=EDGE_CURVE('',#25,#37,#132,.T.);
#134=CARTESIAN_POINT('',(-30.,-30.,-12.));
#135=DIRECTION('',(1.,0.,0.));
#136=VECTOR('',#135,60.);
#137=LINE('',#134,#136);
#138=EDGE_CURVE('',#26,#27,#137,.T.);
#139=CARTESIAN_POINT('',(-12.,-42.,12.));
#140=DIRECTION('',(1.,0.,0.));
#141=VECTOR('',#140,60.);
#142=LINE('',#139,#141);
#143=EDGE_CURVE('',#38,#39,#142,.T.);
#144=CARTESIAN_POINT('',(-30.,-30.,-12.));
#145=DIRECTION('',(0.5570860145311555,-0.37139067635410367,0.7427813527082073));
#146=VECTOR('',#145,32.31098884280703);
#147=LINE('',#144,#146);
#148=EDGE_CURVE('',#26,#38,#147,.T.);
#149=CARTESIAN_POINT('',(30.,-30.,-12.));
#150=DIRECTION('',(0.7071067811865475,0.7071067811865475,0.));
#151=VECTOR('',#150,14.142135623730951);
#152=LINE('',#149,#151);
#153=EDGE_CURVE('',#27,#28,#152,.T.);
#154=CARTESIAN_POINT('',(48.,-42.,12.));
#155=DIRECTION('',(0.7071067811865475,0.7071067811865475,0.));
#156=VECTOR('',#155,14.142135623730951);
#157=LINE('',#154,#156);
#158=EDGE_CURVE('',#39,#40,#157,.T.);
#159=CARTESIAN_POINT('',(30.,-30.,-12.));
#160=DIRECTION('',(0.5570860145311555,-0.37139067635410367,0.7427813527082073));
#161=VECTOR('',#160,32.31098884280703);
#162=LINE('',#159,#161);
#163=EDGE_CURVE('',#27,#39,#162,.T.);
#164=CARTESIAN_POINT('',(40.,-20.,-12.));
#165=DIRECTION('',(0.,1.,0.));
#166=VECTOR('',#165,40.);
#167=LINE('',#164,#166);
#168=EDGE_CURVE('',#28,#29,#167,.T.);
#169=CARTESIAN_POINT('',(58.,-32.,12.));
#170=DIRECTION('',(0.,1.,0.));
#171=VECTOR('',#170,40.);
#172=LINE('',#169,#171);
#173=EDGE_CURVE('',#40,#41,#172,.T.);
#174=CARTESIAN_POINT('',(40.,-20.,-12.));
#175=DIRECTION('',(0.5570860145311555,-0.37139067635410367,0.7427813527082073));
#176=VECTOR('',#175,32.31098884280703);
#177=LINE('',#174,#176);
#178=EDGE_CURVE('',#28,#40,#177,.T.);
#179=CARTESIAN_POINT('',(40.,20.,-12.));
#180=DIRECTION('',(-0.7071067811865475,0.7071067811865475,0.));
#181=VECTOR('',#180,14.142135623730951);
#182=LINE('',#179,#181);
#183=EDGE_CURVE('',#29,#30,#182,.T.);
#184=CARTESIAN_POINT('',(58.,8.,12.));
#185=DIRECTION('',(-0.7071067811865475,0.7071067811865475,0.));
#186=VECTOR('',#185,14.142135623730951);
#187=LINE('',#184,#186);
#188=EDGE_CURVE('',#41,#42,#187,.T.);
#189=CARTESIAN_POINT('',(40.,20.,-12.));
#190=DIRECTION('',(0.5570860145311555,-0.37139067635410367,0.7427813527082073));
#191=VECTOR('',#190,32.31098884280703);
#192=LINE('',#189,#191);
#193=EDGE_CURVE('',#29,#41,#192,.T.);
#194=CARTESIAN_POINT('',(30.,30.,-12.));
#195=DIRECTION('',(-1.,0.,0.));
#196=VECTOR('',#195,60.);
#197=LINE('',#194,#196);
#198=EDGE_CURVE('',#30,#31,#197,.T.);
#199=CARTESIAN_POINT('',(48.,18.,12.));
#200=DIRECTION('',(-1.,0.,0.));
#201=VECTOR('',#200,60.);
#202=LINE('',#199,#201);
#203=EDGE_CURVE('',#42,#43,#202,.T.);
#204=CARTESIAN_POINT('',(30.,30.,-12.));
#205=DIRECTION('',(0.5570860145311555,-0.37139067635410367,0.7427813527082073));
#206=VECTOR('',#205,32.31098884280703);
#207=LINE('',#204,#206);
#208=EDGE_CURVE('',#30,#42,#207,.T.);
#209=CARTESIAN_POINT('',(-30.,30.,-12.));
#210=DIRECTION('',(-0.7071067811865475,-0.7071067811865475,0.));
#211=VECTOR('',#210,14.142135623730951);
#212=LINE('',#209,#211);
#213=EDGE_CURVE('',#31,#32,#212,.T.);
#214=CARTESIAN_POINT('',(-12.,18.,12.));
#215=DIRECTION('',(-0.7071067811865475,-0.7071067811865475,0.));
#216=VECTOR('',#215,14.142135623730951);
#217=LINE('',#214,#216);
#218=EDGE_CURVE('',#43,#44,#217,.T.);
#219=CARTESIAN_POINT('',(-30.,30.,-12.));
#220=DIRECTION('',(0.5570860145311555,-0.37139067635410367,0.7427813527082073));
#221=VECTOR('',#220,32.31098884280703);
#222=LINE('',#219,#221);
#223=EDGE_CURVE('',#31,#43,#222,.T.);
#224=CARTESIAN_POINT('',(-40.,20.,-12.));
#225=DIRECTION('',(0.,-1.,0.));
#226=VECTOR('',#225,40.);
#227=LINE('',#224,#226);
#228=EDGE_CURVE('',#32,#25,#227,.T.);
#229=CARTESIAN_POINT('',(-22.,8.,12.));
#230=DIRECTION('',(0.,-1.,0.));
#231=VECTOR('',#230,40.);
#232=LINE('',#229,#231);
#233=EDGE_CURVE('',#44,#37,#232,.T.);
#234=CARTESIAN_POINT('',(-40.,20.,-12.));
#235=DIRECTION('',(0.5570860145311555,-0.37139067635410367,0.7427813527082073));
#236=VECTOR('',#235,32.31098884280703);
#237=LINE('',#234,#236);
#238=EDGE_CURVE('',#32,#44,#237,.T.);
#239=CARTESIAN_POINT('',(-34.,8.,-12.));
#240=DIRECTION('',(1.,0.,0.));
#241=VECTOR('',#240,12.);
#242=LINE('',#239,#241);
#243=EDGE_CURVE('',#33,#34,#242,.T.);
#244=CARTESIAN_POINT('',(-16.,-4.,12.));
#245=DIRECTION('',(1.,0.,0.));
#246=VECTOR('',#245,12.);
#247=LINE('',#244,#246);
#248=EDGE_CURVE('',#45,#46,#247,.T.);
#249=CARTESIAN_POINT('',(-34.,8.,-12.));
#250=DIRECTION('',(0.5570860145311555,-0.37139067635410367,0.7427813527082073));
#251=VECTOR('',#250,32.31098884280703);
#252=LINE('',#249,#251);
#253=EDGE_CURVE('',#33,#45,#252,.T.);
#254=CARTESIAN_POINT('',(-22.,8.,-12.));
#255=DIRECTION('',(0.,-1.,0.));
#256=VECTOR('',#255,16.);
#257=LINE('',#254,#256);
#258=EDGE_CURVE('',#34,#35,#257,.T.);
#259=CARTESIAN_POINT('',(-4.,-4.,12.));
#260=DIRECTION('',(0.,-1.,0.));
#261=VECTOR('',#260,16.);
#262=LINE('',#259,#261);
#263=EDGE_CURVE('',#46,#47,#262,.T.);
#264=CARTESIAN_POINT('',(-22.,8.,-12.));
#265=DIRECTION('',(0.5570860145311555,-0.37139067635410367,0.7427813527082073));
#266=VECTOR('',#265,32.31098884280703);
#267=LINE('',#264,#266);
#268=EDGE_CURVE('',#34,#46,#267,.T.);
#269=CARTESIAN_POINT('',(-22.,-8.,-12.));
#270=DIRECTION('',(-1.,0.,0.));
#271=VECTOR('',#270,12.);
#272=LINE('',#269,#271);
#273=EDGE_CURVE('',#35,#36,#272,.T.);
#274=CARTESIAN_POINT('',(-4.,-20.,12.));
#275=DIRECTION('',(-1.,0.,0.));
#276=VECTOR('',#275,12.);
#277=LINE('',#274,#276);
#278=EDGE_CURVE('',#47,#48,#277,.T.);
#279=CARTESIAN_POINT('',(-22.,-8.,-12.));
#280=DIRECTION('',(0.5570860145311555,-0.37139067635410367,0.7427813527082073));
#281=VECTOR('',#280,32.31098884280703);
#282=LINE('',#279,#281);
#283=EDGE_CURVE('',#35,#47,#282,.T.);
#284=CARTESIAN_POINT('',(-34.,-8.,-12.));
#285=DIRECTION('',(0.,1.,0.));
#286=VECTOR('',#285,16.);
#287=LINE('',#284,#286);
#288=EDGE_CURVE('',#36,#33,#287,.T.);
#289=CARTESIAN_POINT('',(-16.,-20.,12.));
#290=DIRECTION('',(0.,1.,0.));
#291=VECTOR('',#290,16.);
#292=LINE('',#289,#291);
#293=EDGE_CURVE('',#48,#45,#292,.T.);
#294=CARTESIAN_POINT('',(-34.,-8.,-12.));
#295=DIRECTION('',(0.5570860145311555,-0.37139067635410367,0.7427813527082073));
#296=VECTOR('',#295,32.31098884280703);
#297=LINE('',#294,#296);
#298=EDGE_CURVE('',#36,#48,#297,.T.);
#299=ORIENTED_EDGE('',*,*,#123,.T.);
#300=ORIENTED_EDGE('',*,*,#138,.T.);
#301=ORIENTED_EDGE('',*,*,#153,.T.);
#302=ORIENTED_EDGE('',*,*,#168,.T.);
#303=ORIENTED_EDGE('',*,*,#183,.T.);
#304=ORIENTED_EDGE('',*,*,#198,.T.);
#305=ORIENTED_EDGE('',*,*,#213,.T.);
#306=ORIENTED_EDGE('',*,*,#228,.T.);
#307=EDGE_LOOP('',(#299,#300,#301,#302,#303,#304,#305,#306));
#308=FACE_OUTER_BOUND('',#307,.T.);
#309=ORIENTED_EDGE('',*,*,#243,.T.);
#310=ORIENTED_EDGE('',*,*,#258,.T.);
#311=ORIENTED_EDGE('',*,*,#273,.T.);
#312=ORIENTED_EDGE('',*,*,#288,.T.);
#313=EDGE_LOOP('',(#309,#310,#311,#312));
#314=FACE_BOUND('',#313,.T.);
#315=ADVANCED_FACE('',(#308,#314),#53,.F.);
#316=ORIENTED_EDGE('',*,*,#128,.T.);
#317=ORIENTED_EDGE('',*,*,#143,.T.);
#318=ORIENTED_EDGE('',*,*,#158,.T.);
#319=ORIENTED_EDGE('',*,*,#173,.T.);
#320=ORIENTED_EDGE('',*,*,#188,.T.);
#321=ORIENTED_EDGE('',*,*,#203,.T.);
#322=ORIENTED_EDGE('',*,*,#218,.T.);
#323=ORIENTED_EDGE('',*,*,#233,.T.);
#324=EDGE_LOOP('',(#316,#317,#318,#319,#320,#321,#322,#323));
#325=FACE_OUTER_BOUND('',#324,.T.);
#326=ORIENTED_EDGE('',*,*,#248,.T.);
#327=ORIENTED_EDGE('',*,*,#263,.T.);
#328=ORIENTED_EDGE('',*,*,#278,.T.);
#329=ORIENTED_EDGE('',*,*,#293,.T.);
#330=EDGE_LOOP('',(#326,#327,#328,#329));
#331=FACE_BOUND('',#330,.T.);
#332=ADVANCED_FACE('',(#325,#331),#58,.T.);
#333=ORIENTED_EDGE('',*,*,#123,.T.);
#334=ORIENTED_EDGE('',*,*,#148,.T.);
#335=ORIENTED_EDGE('',*,*,#128,.F.);
#336=ORIENTED_EDGE('',*,*,#133,.F.);
#337=EDGE_LOOP('',(#333,#334,#335,#336));
#338=FACE_OUTER_BOUND('',#337,.T.);
#339=ADVANCED_FACE('',(#338),#63,.T.);
#340=ORIENTED_EDGE('',*,*,#138,.T.);
#341=ORIENTED_EDGE('',*,*,#163,.T.);
#342=ORIENTED_EDGE('',*,*,#143,.F.);
#343=ORIENTED_EDGE('',*,*,#148,.F.);
#344=EDGE_LOOP('',(#340,#341,#342,#343));
#345=FACE_OUTER_BOUND('',#344,.T.);
#346=ADVANCED_FACE('',(#345),#68,.T.);
#347=ORIENTED_EDGE('',*,*,#153,.T.);
#348=ORIENTED_EDGE('',*,*,#178,.T.);
#349=ORIENTED_EDGE('',*,*,#158,.F.);
#350=ORIENTED_EDGE('',*,*,#163,.F.);
#351=EDGE_LOOP('',(#347,#348,#349,#350));
#352=FACE_OUTER_BOUND('',#351,.T.);
#353=ADVANCED_FACE('',(#352),#73,.T.);
#354=ORIENTED_EDGE('',*,*,#168,.T.);
#355=ORIENTED_EDGE('',*,*,#193,.T.);
#356=ORIENTED_EDGE('',*,*,#173,.F.);
#357=ORIENTED_EDGE('',*,*,#178,.F.);
#358=EDGE_LOOP('',(#354,#355,#356,#357));
#359=FACE_OUTER_BOUND('',#358,.T.);
#360=ADVANCED_FACE('',(#359),#78,.T.);
#361=ORIENTED_EDGE('',*,*,#183,.T.);
#362=ORIENTED_EDGE('',*,*,#208,.T.);
#363=ORIENTED_EDGE('',*,*,#188,.F.);
#364=ORIENTED_EDGE('',*,*,#193,.F.);
#365=EDGE_LOOP('',(#361,#362,#363,#364));
#366=FACE_OUTER_BOUND('',#365,.T.);
#367=ADVANCED_FACE('',(#366),#83,.T.);
#368=ORIENTED_EDGE('',*,*,#198,.T.);
#369=ORIENTED_EDGE('',*,*,#223,.T.);
#370=ORIENTED_EDGE('',*,*,#203,.F.);
#371=ORIENTED_EDGE('',*,*,#208,.F.);
#372=EDGE_LOOP('',(#368,#369,#370,#371));
#373=FACE_OUTER_BOUND('',#372,.T.);
#374=ADVANCED_FACE('',(#373),#88,.T.);
#375=ORIENTED_EDGE('',*,*,#213,.T.);
#376=ORIENTED_EDGE('',*,*,#238,.T.);
#377=ORIENTED_EDGE('',*,*,#218,.F.);
#378=ORIENTED_EDGE('',*,*,#223,.F.);
#379=EDGE_LOOP('',(#375,#376,#377,#378));
#380=FACE_OUTER_BOUND('',#379,.T.);
#381=ADVANCED_FACE('',(#380),#93,.T.);
#382=ORIENTED_EDGE('',*,*,#228,.T.);
#383=ORIENTED_EDGE('',*,*,#133,.T.);
#384=ORIENTED_EDGE('',*,*,#233,.F.);
#385=ORIENTED_EDGE('',*,*,#238,.F.);
#386=EDGE_LOOP('',(#382,#383,#384,#385));
#387=FACE_OUTER_BOUND('',#386,.T.);
#388=ADVANCED_FACE('',(#387),#98,.T.);
#389=ORIENTED_EDGE('',*,*,#243,.T.);
#390=ORIENTED_EDGE('',*,*,#268,.T.);
#391=ORIENTED_EDGE('',*,*,#248,.F.);
#392=ORIENTED_EDGE('',*,*,#253,.F.);
#393=EDGE_LOOP('',(#389,#390,#391,#392));
#394=FACE_OUTER_BOUND('',#393,.T.);
#395=ADVANCED_FACE('',(#394),#103,.T.);
#396=ORIENTED_EDGE('',*,*,#258,.T.);
#397=ORIENTED_EDGE('',*,*,#283,.T.);
#398=ORIENTED_EDGE('',*,*,#263,.F.);
#399=ORIENTED_EDGE('',*,*,#268,.F.);
#400=EDGE_LOOP('',(#396,#397,#398,#399));
#401=FACE_OUTER_BOUND('',#400,.T.);
#402=ADVANCED_FACE('',(#401),#108,.T.);
#403=ORIENTED_EDGE('',*,*,#273,.T.);
#404=ORIENTED_EDGE('',*,*,#298,.T.);
#405=ORIENTED_EDGE('',*,*,#278,.F.);
#406=ORIENTED_EDGE('',*,*,#283,.F.);
#407=EDGE_LOOP('',(#403,#404,#405,#406));
#408=FACE_OUTER_BOUND('',#407,.T.);
#409=ADVANCED_FACE('',(#408),#113,.T.);
#410=ORIENTED_EDGE('',*,*,#288,.T.);
#411=ORIENTED_EDGE('',*,*,#253,.T.);
#412=ORIENTED_EDGE('',*,*,#293,.F.);
#413=ORIENTED_EDGE('',*,*,#298,.F.);
#414=EDGE_LOOP('',(#410,#411,#412,#413));
#415=FACE_OUTER_BOUND('',#414,.T.);
#416=ADVANCED_FACE('',(#415),#118,.T.);
#417=CLOSED_SHELL('',(#315,#332,#339,#346,#353,#360,#367,#374,#381,#388,#395,#402,#409,#416));
#418=MANIFOLD_SOLID_BREP('Hagane part',#417);
#419=(LENGTH_UNIT() NAMED_UNIT(*) SI_UNIT(.MILLI.,.METRE.));
#420=(NAMED_UNIT(*) PLANE_ANGLE_UNIT() SI_UNIT($,.RADIAN.));
#421=(NAMED_UNIT(*) SI_UNIT($,.STERADIAN.) SOLID_ANGLE_UNIT());
#422=UNCERTAINTY_MEASURE_WITH_UNIT(LENGTH_MEASURE(0.00000001),#419,'distance_accuracy_value','');
#423=(GEOMETRIC_REPRESENTATION_CONTEXT(3) GLOBAL_UNCERTAINTY_ASSIGNED_CONTEXT((#422)) GLOBAL_UNIT_ASSIGNED_CONTEXT((#419,#420,#421)) REPRESENTATION_CONTEXT('',''));
#424=ADVANCED_BREP_SHAPE_REPRESENTATION('',(#418),#423);
#425=APPLICATION_CONTEXT('automotive_design');
#426=APPLICATION_PROTOCOL_DEFINITION('international standard','automotive_design',2000,#425);
#427=PRODUCT_CONTEXT('',#425,'mechanical');
#428=PRODUCT('hagane','Hagane part','',(#427));
#429=PRODUCT_DEFINITION_FORMATION('','',#428);
#430=PRODUCT_DEFINITION_CONTEXT('part definition',#425,'design');
#431=PRODUCT_DEFINITION('design','',#429,#430);
#432=PRODUCT_DEFINITION_SHAPE('','',#431);
#433=SHAPE_DEFINITION_REPRESENTATION(#432,#424);
ENDSEC;
END-ISO-10303-21;
