ISO-10303-21;
HEADER;
FILE_DESCRIPTION(('Hagane exact B-rep'),'2;1');
FILE_NAME('hagane.step','',('Hagane'),(''),'Hagane','Hagane','');
FILE_SCHEMA(('AUTOMOTIVE_DESIGN'));
ENDSEC;
DATA;
#1=CARTESIAN_POINT('',(-40.,-20.,-12.));
#2=CARTESIAN_POINT('',(-30.,-30.,-12.));
#3=CARTESIAN_POINT('',(30.,-30.,-12.));
#4=CARTESIAN_POINT('',(40.,-20.,-12.));
#5=CARTESIAN_POINT('',(40.,20.,-12.));
#6=CARTESIAN_POINT('',(30.,30.,-12.));
#7=CARTESIAN_POINT('',(-30.,30.,-12.));
#8=CARTESIAN_POINT('',(-40.,20.,-12.));
#9=CARTESIAN_POINT('',(-34.,8.,-12.));
#10=CARTESIAN_POINT('',(-22.,8.,-12.));
#11=CARTESIAN_POINT('',(-22.,-8.,-12.));
#12=CARTESIAN_POINT('',(-34.,-8.,-12.));
#13=CARTESIAN_POINT('',(-22.,-32.,12.));
#14=CARTESIAN_POINT('',(-12.,-42.,12.));
#15=CARTESIAN_POINT('',(48.,-42.,12.));
#16=CARTESIAN_POINT('',(58.,-32.,12.));
#17=CARTESIAN_POINT('',(58.,8.,12.));
#18=CARTESIAN_POINT('',(48.,18.,12.));
#19=CARTESIAN_POINT('',(-12.,18.,12.));
#20=CARTESIAN_POINT('',(-22.,8.,12.));
#21=CARTESIAN_POINT('',(-16.,-4.,12.));
#22=CARTESIAN_POINT('',(-4.,-4.,12.));
#23=CARTESIAN_POINT('',(-4.,-20.,12.));
#24=CARTESIAN_POINT('',(-16.,-20.,12.));
#25=CARTESIAN_POINT('',(28.,0.,-12.));
#26=CARTESIAN_POINT('',(28.,0.,-4.));
#27=CARTESIAN_POINT('',(30.,0.,2.));
#28=CARTESIAN_POINT('',(30.,0.,12.));
#29=VERTEX_POINT('',#1);
#30=VERTEX_POINT('',#2);
#31=VERTEX_POINT('',#3);
#32=VERTEX_POINT('',#4);
#33=VERTEX_POINT('',#5);
#34=VERTEX_POINT('',#6);
#35=VERTEX_POINT('',#7);
#36=VERTEX_POINT('',#8);
#37=VERTEX_POINT('',#9);
#38=VERTEX_POINT('',#10);
#39=VERTEX_POINT('',#11);
#40=VERTEX_POINT('',#12);
#41=VERTEX_POINT('',#13);
#42=VERTEX_POINT('',#14);
#43=VERTEX_POINT('',#15);
#44=VERTEX_POINT('',#16);
#45=VERTEX_POINT('',#17);
#46=VERTEX_POINT('',#18);
#47=VERTEX_POINT('',#19);
#48=VERTEX_POINT('',#20);
#49=VERTEX_POINT('',#21);
#50=VERTEX_POINT('',#22);
#51=VERTEX_POINT('',#23);
#52=VERTEX_POINT('',#24);
#53=VERTEX_POINT('',#25);
#54=VERTEX_POINT('',#26);
#55=VERTEX_POINT('',#27);
#56=VERTEX_POINT('',#28);
#57=CARTESIAN_POINT('',(0.,0.,-12.));
#58=DIRECTION('',(0.,0.,1.));
#59=DIRECTION('',(1.,0.,0.));
#60=AXIS2_PLACEMENT_3D('',#57,#58,#59);
#61=PLANE('',#60);
#62=CARTESIAN_POINT('',(18.,-12.,12.));
#63=DIRECTION('',(0.,0.,1.));
#64=DIRECTION('',(1.,0.,0.));
#65=AXIS2_PLACEMENT_3D('',#62,#63,#64);
#66=PLANE('',#65);
#67=CARTESIAN_POINT('',(-40.,-20.,-12.));
#68=DIRECTION('',(-0.6963106238227912,-0.6963106238227912,0.1740776559556978));
#69=DIRECTION('',(0.7071067811865475,-0.7071067811865475,0.));
#70=AXIS2_PLACEMENT_3D('',#67,#68,#69);
#71=PLANE('',#70);
#72=CARTESIAN_POINT('',(-30.,-30.,-12.));
#73=DIRECTION('',(0.,-0.8944271909999159,-0.4472135954999579));
#74=DIRECTION('',(1.,0.,0.));
#75=AXIS2_PLACEMENT_3D('',#72,#73,#74);
#76=PLANE('',#75);
#77=CARTESIAN_POINT('',(30.,-30.,-12.));
#78=DIRECTION('',(0.5298129428260175,-0.5298129428260175,-0.6622661785325218));
#79=DIRECTION('',(0.7071067811865475,0.7071067811865475,0.));
#80=AXIS2_PLACEMENT_3D('',#77,#78,#79);
#81=PLANE('',#80);
#82=CARTESIAN_POINT('',(40.,-20.,-12.));
#83=DIRECTION('',(0.8,0.,-0.6));
#84=DIRECTION('',(0.,1.,0.));
#85=AXIS2_PLACEMENT_3D('',#82,#83,#84);
#86=PLANE('',#85);
#87=CARTESIAN_POINT('',(40.,20.,-12.));
#88=DIRECTION('',(0.6963106238227912,0.6963106238227912,-0.1740776559556978));
#89=DIRECTION('',(-0.7071067811865475,0.7071067811865475,0.));
#90=AXIS2_PLACEMENT_3D('',#87,#88,#89);
#91=PLANE('',#90);
#92=CARTESIAN_POINT('',(30.,30.,-12.));
#93=DIRECTION('',(0.,0.8944271909999159,0.4472135954999579));
#94=DIRECTION('',(-1.,0.,0.));
#95=AXIS2_PLACEMENT_3D('',#92,#93,#94);
#96=PLANE('',#95);
#97=CARTESIAN_POINT('',(-30.,30.,-12.));
#98=DIRECTION('',(-0.5298129428260175,0.5298129428260175,0.6622661785325218));
#99=DIRECTION('',(-0.7071067811865475,-0.7071067811865475,0.));
#100=AXIS2_PLACEMENT_3D('',#97,#98,#99);
#101=PLANE('',#100);
#102=CARTESIAN_POINT('',(-40.,20.,-12.));
#103=DIRECTION('',(-0.8,0.,0.6));
#104=DIRECTION('',(0.,-1.,0.));
#105=AXIS2_PLACEMENT_3D('',#102,#103,#104);
#106=PLANE('',#105);
#107=CARTESIAN_POINT('',(-34.,8.,-12.));
#108=DIRECTION('',(0.,-0.8944271909999159,-0.4472135954999579));
#109=DIRECTION('',(1.,0.,0.));
#110=AXIS2_PLACEMENT_3D('',#107,#108,#109);
#111=PLANE('',#110);
#112=CARTESIAN_POINT('',(-22.,8.,-12.));
#113=DIRECTION('',(-0.8,0.,0.6));
#114=DIRECTION('',(0.,-1.,0.));
#115=AXIS2_PLACEMENT_3D('',#112,#113,#114);
#116=PLANE('',#115);
#117=CARTESIAN_POINT('',(-22.,-8.,-12.));
#118=DIRECTION('',(0.,0.8944271909999159,0.4472135954999579));
#119=DIRECTION('',(-1.,0.,0.));
#120=AXIS2_PLACEMENT_3D('',#117,#118,#119);
#121=PLANE('',#120);
#122=CARTESIAN_POINT('',(-34.,-8.,-12.));
#123=DIRECTION('',(0.8,0.,-0.6));
#124=DIRECTION('',(0.,1.,0.));
#125=AXIS2_PLACEMENT_3D('',#122,#123,#124);
#126=PLANE('',#125);
#127=CARTESIAN_POINT('',(24.,0.,-12.));
#128=DIRECTION('',(0.,0.,1.));
#129=DIRECTION('',(1.,0.,0.));
#130=AXIS2_PLACEMENT_3D('',#127,#128,#129);
#131=CYLINDRICAL_SURFACE('',#130,4.);
#132=CARTESIAN_POINT('',(24.,0.,-4.));
#133=DIRECTION('',(0.,0.,1.));
#134=DIRECTION('',(1.,0.,0.));
#135=AXIS2_PLACEMENT_3D('',#132,#133,#134);
#136=PLANE('',#135);
#137=CARTESIAN_POINT('',(24.,0.,2.));
#138=DIRECTION('',(0.,0.,1.));
#139=DIRECTION('',(1.,0.,0.));
#140=AXIS2_PLACEMENT_3D('',#137,#138,#139);
#141=CYLINDRICAL_SURFACE('',#140,6.);
#142=CARTESIAN_POINT('',(24.,0.,2.));
#143=DIRECTION('',(0.,0.,1.));
#144=DIRECTION('',(1.,0.,0.));
#145=AXIS2_PLACEMENT_3D('',#142,#143,#144);
#146=PLANE('',#145);
#147=(GEOMETRIC_REPRESENTATION_CONTEXT(2) REPRESENTATION_CONTEXT('',''));
#148=CARTESIAN_POINT('',(-40.,-20.,-12.));
#149=DIRECTION('',(0.7071067811865475,-0.7071067811865475,0.));
#150=VECTOR('',#149,14.142135623730951);
#151=LINE('',#148,#150);
#152=EDGE_CURVE('',#29,#30,#151,.T.);
#153=CARTESIAN_POINT('',(-22.,-32.,12.));
#154=DIRECTION('',(0.7071067811865475,-0.7071067811865475,0.));
#155=VECTOR('',#154,14.142135623730951);
#156=LINE('',#153,#155);
#157=EDGE_CURVE('',#41,#42,#156,.T.);
#158=CARTESIAN_POINT('',(-40.,-20.,-12.));
#159=DIRECTION('',(0.5570860145311555,-0.37139067635410367,0.7427813527082073));
#160=VECTOR('',#159,32.31098884280703);
#161=LINE('',#158,#160);
#162=EDGE_CURVE('',#29,#41,#161,.T.);
#163=CARTESIAN_POINT('',(-30.,-30.,-12.));
#164=DIRECTION('',(1.,0.,0.));
#165=VECTOR('',#164,60.);
#166=LINE('',#163,#165);
#167=EDGE_CURVE('',#30,#31,#166,.T.);
#168=CARTESIAN_POINT('',(-12.,-42.,12.));
#169=DIRECTION('',(1.,0.,0.));
#170=VECTOR('',#169,60.);
#171=LINE('',#168,#170);
#172=EDGE_CURVE('',#42,#43,#171,.T.);
#173=CARTESIAN_POINT('',(-30.,-30.,-12.));
#174=DIRECTION('',(0.5570860145311555,-0.37139067635410367,0.7427813527082073));
#175=VECTOR('',#174,32.31098884280703);
#176=LINE('',#173,#175);
#177=EDGE_CURVE('',#30,#42,#176,.T.);
#178=CARTESIAN_POINT('',(30.,-30.,-12.));
#179=DIRECTION('',(0.7071067811865475,0.7071067811865475,0.));
#180=VECTOR('',#179,14.142135623730951);
#181=LINE('',#178,#180);
#182=EDGE_CURVE('',#31,#32,#181,.T.);
#183=CARTESIAN_POINT('',(48.,-42.,12.));
#184=DIRECTION('',(0.7071067811865475,0.7071067811865475,0.));
#185=VECTOR('',#184,14.142135623730951);
#186=LINE('',#183,#185);
#187=EDGE_CURVE('',#43,#44,#186,.T.);
#188=CARTESIAN_POINT('',(30.,-30.,-12.));
#189=DIRECTION('',(0.5570860145311555,-0.37139067635410367,0.7427813527082073));
#190=VECTOR('',#189,32.31098884280703);
#191=LINE('',#188,#190);
#192=EDGE_CURVE('',#31,#43,#191,.T.);
#193=CARTESIAN_POINT('',(40.,-20.,-12.));
#194=DIRECTION('',(0.,1.,0.));
#195=VECTOR('',#194,40.);
#196=LINE('',#193,#195);
#197=EDGE_CURVE('',#32,#33,#196,.T.);
#198=CARTESIAN_POINT('',(58.,-32.,12.));
#199=DIRECTION('',(0.,1.,0.));
#200=VECTOR('',#199,40.);
#201=LINE('',#198,#200);
#202=EDGE_CURVE('',#44,#45,#201,.T.);
#203=CARTESIAN_POINT('',(40.,-20.,-12.));
#204=DIRECTION('',(0.5570860145311555,-0.37139067635410367,0.7427813527082073));
#205=VECTOR('',#204,32.31098884280703);
#206=LINE('',#203,#205);
#207=EDGE_CURVE('',#32,#44,#206,.T.);
#208=CARTESIAN_POINT('',(40.,20.,-12.));
#209=DIRECTION('',(-0.7071067811865475,0.7071067811865475,0.));
#210=VECTOR('',#209,14.142135623730951);
#211=LINE('',#208,#210);
#212=EDGE_CURVE('',#33,#34,#211,.T.);
#213=CARTESIAN_POINT('',(58.,8.,12.));
#214=DIRECTION('',(-0.7071067811865475,0.7071067811865475,0.));
#215=VECTOR('',#214,14.142135623730951);
#216=LINE('',#213,#215);
#217=EDGE_CURVE('',#45,#46,#216,.T.);
#218=CARTESIAN_POINT('',(40.,20.,-12.));
#219=DIRECTION('',(0.5570860145311555,-0.37139067635410367,0.7427813527082073));
#220=VECTOR('',#219,32.31098884280703);
#221=LINE('',#218,#220);
#222=EDGE_CURVE('',#33,#45,#221,.T.);
#223=CARTESIAN_POINT('',(30.,30.,-12.));
#224=DIRECTION('',(-1.,0.,0.));
#225=VECTOR('',#224,60.);
#226=LINE('',#223,#225);
#227=EDGE_CURVE('',#34,#35,#226,.T.);
#228=CARTESIAN_POINT('',(48.,18.,12.));
#229=DIRECTION('',(-1.,0.,0.));
#230=VECTOR('',#229,60.);
#231=LINE('',#228,#230);
#232=EDGE_CURVE('',#46,#47,#231,.T.);
#233=CARTESIAN_POINT('',(30.,30.,-12.));
#234=DIRECTION('',(0.5570860145311555,-0.37139067635410367,0.7427813527082073));
#235=VECTOR('',#234,32.31098884280703);
#236=LINE('',#233,#235);
#237=EDGE_CURVE('',#34,#46,#236,.T.);
#238=CARTESIAN_POINT('',(-30.,30.,-12.));
#239=DIRECTION('',(-0.7071067811865475,-0.7071067811865475,0.));
#240=VECTOR('',#239,14.142135623730951);
#241=LINE('',#238,#240);
#242=EDGE_CURVE('',#35,#36,#241,.T.);
#243=CARTESIAN_POINT('',(-12.,18.,12.));
#244=DIRECTION('',(-0.7071067811865475,-0.7071067811865475,0.));
#245=VECTOR('',#244,14.142135623730951);
#246=LINE('',#243,#245);
#247=EDGE_CURVE('',#47,#48,#246,.T.);
#248=CARTESIAN_POINT('',(-30.,30.,-12.));
#249=DIRECTION('',(0.5570860145311555,-0.37139067635410367,0.7427813527082073));
#250=VECTOR('',#249,32.31098884280703);
#251=LINE('',#248,#250);
#252=EDGE_CURVE('',#35,#47,#251,.T.);
#253=CARTESIAN_POINT('',(-40.,20.,-12.));
#254=DIRECTION('',(0.,-1.,0.));
#255=VECTOR('',#254,40.);
#256=LINE('',#253,#255);
#257=EDGE_CURVE('',#36,#29,#256,.T.);
#258=CARTESIAN_POINT('',(-22.,8.,12.));
#259=DIRECTION('',(0.,-1.,0.));
#260=VECTOR('',#259,40.);
#261=LINE('',#258,#260);
#262=EDGE_CURVE('',#48,#41,#261,.T.);
#263=CARTESIAN_POINT('',(-40.,20.,-12.));
#264=DIRECTION('',(0.5570860145311555,-0.37139067635410367,0.7427813527082073));
#265=VECTOR('',#264,32.31098884280703);
#266=LINE('',#263,#265);
#267=EDGE_CURVE('',#36,#48,#266,.T.);
#268=CARTESIAN_POINT('',(-34.,8.,-12.));
#269=DIRECTION('',(1.,0.,0.));
#270=VECTOR('',#269,12.);
#271=LINE('',#268,#270);
#272=EDGE_CURVE('',#37,#38,#271,.T.);
#273=CARTESIAN_POINT('',(-16.,-4.,12.));
#274=DIRECTION('',(1.,0.,0.));
#275=VECTOR('',#274,12.);
#276=LINE('',#273,#275);
#277=EDGE_CURVE('',#49,#50,#276,.T.);
#278=CARTESIAN_POINT('',(-34.,8.,-12.));
#279=DIRECTION('',(0.5570860145311555,-0.37139067635410367,0.7427813527082073));
#280=VECTOR('',#279,32.31098884280703);
#281=LINE('',#278,#280);
#282=EDGE_CURVE('',#37,#49,#281,.T.);
#283=CARTESIAN_POINT('',(-22.,8.,-12.));
#284=DIRECTION('',(0.,-1.,0.));
#285=VECTOR('',#284,16.);
#286=LINE('',#283,#285);
#287=EDGE_CURVE('',#38,#39,#286,.T.);
#288=CARTESIAN_POINT('',(-4.,-4.,12.));
#289=DIRECTION('',(0.,-1.,0.));
#290=VECTOR('',#289,16.);
#291=LINE('',#288,#290);
#292=EDGE_CURVE('',#50,#51,#291,.T.);
#293=CARTESIAN_POINT('',(-22.,8.,-12.));
#294=DIRECTION('',(0.5570860145311555,-0.37139067635410367,0.7427813527082073));
#295=VECTOR('',#294,32.31098884280703);
#296=LINE('',#293,#295);
#297=EDGE_CURVE('',#38,#50,#296,.T.);
#298=CARTESIAN_POINT('',(-22.,-8.,-12.));
#299=DIRECTION('',(-1.,0.,0.));
#300=VECTOR('',#299,12.);
#301=LINE('',#298,#300);
#302=EDGE_CURVE('',#39,#40,#301,.T.);
#303=CARTESIAN_POINT('',(-4.,-20.,12.));
#304=DIRECTION('',(-1.,0.,0.));
#305=VECTOR('',#304,12.);
#306=LINE('',#303,#305);
#307=EDGE_CURVE('',#51,#52,#306,.T.);
#308=CARTESIAN_POINT('',(-22.,-8.,-12.));
#309=DIRECTION('',(0.5570860145311555,-0.37139067635410367,0.7427813527082073));
#310=VECTOR('',#309,32.31098884280703);
#311=LINE('',#308,#310);
#312=EDGE_CURVE('',#39,#51,#311,.T.);
#313=CARTESIAN_POINT('',(-34.,-8.,-12.));
#314=DIRECTION('',(0.,1.,0.));
#315=VECTOR('',#314,16.);
#316=LINE('',#313,#315);
#317=EDGE_CURVE('',#40,#37,#316,.T.);
#318=CARTESIAN_POINT('',(-16.,-20.,12.));
#319=DIRECTION('',(0.,1.,0.));
#320=VECTOR('',#319,16.);
#321=LINE('',#318,#320);
#322=EDGE_CURVE('',#52,#49,#321,.T.);
#323=CARTESIAN_POINT('',(-34.,-8.,-12.));
#324=DIRECTION('',(0.5570860145311555,-0.37139067635410367,0.7427813527082073));
#325=VECTOR('',#324,32.31098884280703);
#326=LINE('',#323,#325);
#327=EDGE_CURVE('',#40,#52,#326,.T.);
#328=CARTESIAN_POINT('',(24.,0.,-12.));
#329=DIRECTION('',(0.,0.,1.));
#330=DIRECTION('',(1.,0.,0.));
#331=AXIS2_PLACEMENT_3D('',#328,#329,#330);
#332=CIRCLE('',#331,4.);
#333=EDGE_CURVE('',#53,#53,#332,.T.);
#334=CARTESIAN_POINT('',(24.,0.,-4.));
#335=DIRECTION('',(0.,0.,1.));
#336=DIRECTION('',(1.,0.,0.));
#337=AXIS2_PLACEMENT_3D('',#334,#335,#336);
#338=CIRCLE('',#337,4.);
#339=EDGE_CURVE('',#54,#54,#338,.T.);
#340=CARTESIAN_POINT('',(28.,0.,-12.));
#341=DIRECTION('',(0.,0.,1.));
#342=VECTOR('',#341,8.);
#343=LINE('',#340,#342);
#344=CARTESIAN_POINT('',(6.283185307179586,0.));
#345=DIRECTION('',(0.,1.));
#346=VECTOR('',#345,8.);
#347=LINE('',#344,#346);
#348=DEFINITIONAL_REPRESENTATION('',(#347),#147);
#349=PCURVE('',#131,#348);
#350=CARTESIAN_POINT('',(0.,0.));
#351=DIRECTION('',(0.,1.));
#352=VECTOR('',#351,8.);
#353=LINE('',#350,#352);
#354=DEFINITIONAL_REPRESENTATION('',(#353),#147);
#355=PCURVE('',#131,#354);
#356=SEAM_CURVE('',#343,(#349,#355),.CURVE_3D.);
#357=EDGE_CURVE('',#53,#54,#356,.T.);
#358=CARTESIAN_POINT('',(24.,0.,2.));
#359=DIRECTION('',(0.,0.,1.));
#360=DIRECTION('',(1.,0.,0.));
#361=AXIS2_PLACEMENT_3D('',#358,#359,#360);
#362=CIRCLE('',#361,6.);
#363=EDGE_CURVE('',#55,#55,#362,.T.);
#364=CARTESIAN_POINT('',(24.,0.,12.));
#365=DIRECTION('',(0.,0.,1.));
#366=DIRECTION('',(1.,0.,0.));
#367=AXIS2_PLACEMENT_3D('',#364,#365,#366);
#368=CIRCLE('',#367,6.);
#369=EDGE_CURVE('',#56,#56,#368,.T.);
#370=CARTESIAN_POINT('',(30.,0.,2.));
#371=DIRECTION('',(0.,0.,1.));
#372=VECTOR('',#371,10.);
#373=LINE('',#370,#372);
#374=CARTESIAN_POINT('',(6.283185307179586,0.));
#375=DIRECTION('',(0.,1.));
#376=VECTOR('',#375,10.);
#377=LINE('',#374,#376);
#378=DEFINITIONAL_REPRESENTATION('',(#377),#147);
#379=PCURVE('',#141,#378);
#380=CARTESIAN_POINT('',(0.,0.));
#381=DIRECTION('',(0.,1.));
#382=VECTOR('',#381,10.);
#383=LINE('',#380,#382);
#384=DEFINITIONAL_REPRESENTATION('',(#383),#147);
#385=PCURVE('',#141,#384);
#386=SEAM_CURVE('',#373,(#379,#385),.CURVE_3D.);
#387=EDGE_CURVE('',#55,#56,#386,.T.);
#388=ORIENTED_EDGE('',*,*,#152,.T.);
#389=ORIENTED_EDGE('',*,*,#167,.T.);
#390=ORIENTED_EDGE('',*,*,#182,.T.);
#391=ORIENTED_EDGE('',*,*,#197,.T.);
#392=ORIENTED_EDGE('',*,*,#212,.T.);
#393=ORIENTED_EDGE('',*,*,#227,.T.);
#394=ORIENTED_EDGE('',*,*,#242,.T.);
#395=ORIENTED_EDGE('',*,*,#257,.T.);
#396=EDGE_LOOP('',(#388,#389,#390,#391,#392,#393,#394,#395));
#397=FACE_OUTER_BOUND('',#396,.T.);
#398=ORIENTED_EDGE('',*,*,#272,.T.);
#399=ORIENTED_EDGE('',*,*,#287,.T.);
#400=ORIENTED_EDGE('',*,*,#302,.T.);
#401=ORIENTED_EDGE('',*,*,#317,.T.);
#402=EDGE_LOOP('',(#398,#399,#400,#401));
#403=FACE_BOUND('',#402,.T.);
#404=ORIENTED_EDGE('',*,*,#333,.F.);
#405=EDGE_LOOP('',(#404));
#406=FACE_BOUND('',#405,.T.);
#407=ADVANCED_FACE('',(#397,#403,#406),#61,.F.);
#408=ORIENTED_EDGE('',*,*,#157,.T.);
#409=ORIENTED_EDGE('',*,*,#172,.T.);
#410=ORIENTED_EDGE('',*,*,#187,.T.);
#411=ORIENTED_EDGE('',*,*,#202,.T.);
#412=ORIENTED_EDGE('',*,*,#217,.T.);
#413=ORIENTED_EDGE('',*,*,#232,.T.);
#414=ORIENTED_EDGE('',*,*,#247,.T.);
#415=ORIENTED_EDGE('',*,*,#262,.T.);
#416=EDGE_LOOP('',(#408,#409,#410,#411,#412,#413,#414,#415));
#417=FACE_OUTER_BOUND('',#416,.T.);
#418=ORIENTED_EDGE('',*,*,#277,.T.);
#419=ORIENTED_EDGE('',*,*,#292,.T.);
#420=ORIENTED_EDGE('',*,*,#307,.T.);
#421=ORIENTED_EDGE('',*,*,#322,.T.);
#422=EDGE_LOOP('',(#418,#419,#420,#421));
#423=FACE_BOUND('',#422,.T.);
#424=ORIENTED_EDGE('',*,*,#369,.F.);
#425=EDGE_LOOP('',(#424));
#426=FACE_BOUND('',#425,.T.);
#427=ADVANCED_FACE('',(#417,#423,#426),#66,.T.);
#428=ORIENTED_EDGE('',*,*,#152,.T.);
#429=ORIENTED_EDGE('',*,*,#177,.T.);
#430=ORIENTED_EDGE('',*,*,#157,.F.);
#431=ORIENTED_EDGE('',*,*,#162,.F.);
#432=EDGE_LOOP('',(#428,#429,#430,#431));
#433=FACE_OUTER_BOUND('',#432,.T.);
#434=ADVANCED_FACE('',(#433),#71,.T.);
#435=ORIENTED_EDGE('',*,*,#167,.T.);
#436=ORIENTED_EDGE('',*,*,#192,.T.);
#437=ORIENTED_EDGE('',*,*,#172,.F.);
#438=ORIENTED_EDGE('',*,*,#177,.F.);
#439=EDGE_LOOP('',(#435,#436,#437,#438));
#440=FACE_OUTER_BOUND('',#439,.T.);
#441=ADVANCED_FACE('',(#440),#76,.T.);
#442=ORIENTED_EDGE('',*,*,#182,.T.);
#443=ORIENTED_EDGE('',*,*,#207,.T.);
#444=ORIENTED_EDGE('',*,*,#187,.F.);
#445=ORIENTED_EDGE('',*,*,#192,.F.);
#446=EDGE_LOOP('',(#442,#443,#444,#445));
#447=FACE_OUTER_BOUND('',#446,.T.);
#448=ADVANCED_FACE('',(#447),#81,.T.);
#449=ORIENTED_EDGE('',*,*,#197,.T.);
#450=ORIENTED_EDGE('',*,*,#222,.T.);
#451=ORIENTED_EDGE('',*,*,#202,.F.);
#452=ORIENTED_EDGE('',*,*,#207,.F.);
#453=EDGE_LOOP('',(#449,#450,#451,#452));
#454=FACE_OUTER_BOUND('',#453,.T.);
#455=ADVANCED_FACE('',(#454),#86,.T.);
#456=ORIENTED_EDGE('',*,*,#212,.T.);
#457=ORIENTED_EDGE('',*,*,#237,.T.);
#458=ORIENTED_EDGE('',*,*,#217,.F.);
#459=ORIENTED_EDGE('',*,*,#222,.F.);
#460=EDGE_LOOP('',(#456,#457,#458,#459));
#461=FACE_OUTER_BOUND('',#460,.T.);
#462=ADVANCED_FACE('',(#461),#91,.T.);
#463=ORIENTED_EDGE('',*,*,#227,.T.);
#464=ORIENTED_EDGE('',*,*,#252,.T.);
#465=ORIENTED_EDGE('',*,*,#232,.F.);
#466=ORIENTED_EDGE('',*,*,#237,.F.);
#467=EDGE_LOOP('',(#463,#464,#465,#466));
#468=FACE_OUTER_BOUND('',#467,.T.);
#469=ADVANCED_FACE('',(#468),#96,.T.);
#470=ORIENTED_EDGE('',*,*,#242,.T.);
#471=ORIENTED_EDGE('',*,*,#267,.T.);
#472=ORIENTED_EDGE('',*,*,#247,.F.);
#473=ORIENTED_EDGE('',*,*,#252,.F.);
#474=EDGE_LOOP('',(#470,#471,#472,#473));
#475=FACE_OUTER_BOUND('',#474,.T.);
#476=ADVANCED_FACE('',(#475),#101,.T.);
#477=ORIENTED_EDGE('',*,*,#257,.T.);
#478=ORIENTED_EDGE('',*,*,#162,.T.);
#479=ORIENTED_EDGE('',*,*,#262,.F.);
#480=ORIENTED_EDGE('',*,*,#267,.F.);
#481=EDGE_LOOP('',(#477,#478,#479,#480));
#482=FACE_OUTER_BOUND('',#481,.T.);
#483=ADVANCED_FACE('',(#482),#106,.T.);
#484=ORIENTED_EDGE('',*,*,#272,.T.);
#485=ORIENTED_EDGE('',*,*,#297,.T.);
#486=ORIENTED_EDGE('',*,*,#277,.F.);
#487=ORIENTED_EDGE('',*,*,#282,.F.);
#488=EDGE_LOOP('',(#484,#485,#486,#487));
#489=FACE_OUTER_BOUND('',#488,.T.);
#490=ADVANCED_FACE('',(#489),#111,.T.);
#491=ORIENTED_EDGE('',*,*,#287,.T.);
#492=ORIENTED_EDGE('',*,*,#312,.T.);
#493=ORIENTED_EDGE('',*,*,#292,.F.);
#494=ORIENTED_EDGE('',*,*,#297,.F.);
#495=EDGE_LOOP('',(#491,#492,#493,#494));
#496=FACE_OUTER_BOUND('',#495,.T.);
#497=ADVANCED_FACE('',(#496),#116,.T.);
#498=ORIENTED_EDGE('',*,*,#302,.T.);
#499=ORIENTED_EDGE('',*,*,#327,.T.);
#500=ORIENTED_EDGE('',*,*,#307,.F.);
#501=ORIENTED_EDGE('',*,*,#312,.F.);
#502=EDGE_LOOP('',(#498,#499,#500,#501));
#503=FACE_OUTER_BOUND('',#502,.T.);
#504=ADVANCED_FACE('',(#503),#121,.T.);
#505=ORIENTED_EDGE('',*,*,#317,.T.);
#506=ORIENTED_EDGE('',*,*,#282,.T.);
#507=ORIENTED_EDGE('',*,*,#322,.F.);
#508=ORIENTED_EDGE('',*,*,#327,.F.);
#509=EDGE_LOOP('',(#505,#506,#507,#508));
#510=FACE_OUTER_BOUND('',#509,.T.);
#511=ADVANCED_FACE('',(#510),#126,.T.);
#512=ORIENTED_EDGE('',*,*,#333,.T.);
#513=ORIENTED_EDGE('',*,*,#357,.T.);
#514=ORIENTED_EDGE('',*,*,#339,.F.);
#515=ORIENTED_EDGE('',*,*,#357,.F.);
#516=EDGE_LOOP('',(#512,#513,#514,#515));
#517=FACE_OUTER_BOUND('',#516,.T.);
#518=ADVANCED_FACE('',(#517),#131,.F.);
#519=ORIENTED_EDGE('',*,*,#339,.T.);
#520=EDGE_LOOP('',(#519));
#521=FACE_OUTER_BOUND('',#520,.T.);
#522=ADVANCED_FACE('',(#521),#136,.F.);
#523=ORIENTED_EDGE('',*,*,#363,.T.);
#524=ORIENTED_EDGE('',*,*,#387,.T.);
#525=ORIENTED_EDGE('',*,*,#369,.F.);
#526=ORIENTED_EDGE('',*,*,#387,.F.);
#527=EDGE_LOOP('',(#523,#524,#525,#526));
#528=FACE_OUTER_BOUND('',#527,.T.);
#529=ADVANCED_FACE('',(#528),#141,.F.);
#530=ORIENTED_EDGE('',*,*,#363,.T.);
#531=EDGE_LOOP('',(#530));
#532=FACE_OUTER_BOUND('',#531,.T.);
#533=ADVANCED_FACE('',(#532),#146,.T.);
#534=CLOSED_SHELL('',(#407,#427,#434,#441,#448,#455,#462,#469,#476,#483,#490,#497,#504,#511,#518,#522,#529,#533));
#535=MANIFOLD_SOLID_BREP('Hagane part',#534);
#536=(LENGTH_UNIT() NAMED_UNIT(*) SI_UNIT(.MILLI.,.METRE.));
#537=(NAMED_UNIT(*) PLANE_ANGLE_UNIT() SI_UNIT($,.RADIAN.));
#538=(NAMED_UNIT(*) SI_UNIT($,.STERADIAN.) SOLID_ANGLE_UNIT());
#539=UNCERTAINTY_MEASURE_WITH_UNIT(LENGTH_MEASURE(0.00000001),#536,'distance_accuracy_value','');
#540=(GEOMETRIC_REPRESENTATION_CONTEXT(3) GLOBAL_UNCERTAINTY_ASSIGNED_CONTEXT((#539)) GLOBAL_UNIT_ASSIGNED_CONTEXT((#536,#537,#538)) REPRESENTATION_CONTEXT('',''));
#541=ADVANCED_BREP_SHAPE_REPRESENTATION('',(#535),#540);
#542=APPLICATION_CONTEXT('automotive_design');
#543=APPLICATION_PROTOCOL_DEFINITION('international standard','automotive_design',2000,#542);
#544=PRODUCT_CONTEXT('',#542,'mechanical');
#545=PRODUCT('hagane','Hagane part','',(#544));
#546=PRODUCT_DEFINITION_FORMATION('','',#545);
#547=PRODUCT_DEFINITION_CONTEXT('part definition',#542,'design');
#548=PRODUCT_DEFINITION('design','',#546,#547);
#549=PRODUCT_DEFINITION_SHAPE('','',#548);
#550=SHAPE_DEFINITION_REPRESENTATION(#549,#541);
ENDSEC;
END-ISO-10303-21;
